<svg width="265" height="348" viewBox="0 0 265 348" fill="none" xmlns="http://www.w3.org/2000/svg">
<path d="M12.5516 123.712C18.3115 119.643 24.8565 117.435 31.5821 116.775C28.349 108.914 29.7975 102.211 34.3557 94.3324C40.0299 84.5185 51.0598 80.1945 61.7356 81.0261C61.378 76.1298 62.0289 68.8731 66.9824 64.6475C75.1529 57.6769 85.7912 60.9637 94.7414 64.4972C91.8427 54.6601 93.7775 49.8425 97.574 45.4917C102.164 39.0397 109.062 33.9593 117.706 33.3513C135.621 27.2533 150.24 28.5176 143.153 4.26713C139.147 -9.43803 191.398 13.4194 202.283 23.0098C220.847 39.3669 227.678 53.1132 218.934 71.8738L218.916 71.9113L218.914 71.9131C218.481 72.8394 218.027 73.7586 217.526 74.6617C227.001 80.1802 234.699 89.5578 235.899 101.19C237.194 113.735 231.857 121.442 231.555 121.945C233.377 122.844 260.553 134.109 263.926 167.329C264.461 172.604 264.357 177.686 263.216 182.524V182.525C262.404 185.964 261.156 189.262 259.506 192.379L259.368 192.634C258.86 193.577 258.32 194.501 257.741 195.408L257.587 195.655C256.36 197.545 254.98 199.351 253.456 201.066C253.265 201.281 253.068 201.49 252.875 201.701C252.59 202.008 252.317 202.325 252.025 202.625C253.234 220.424 246.156 240.699 231.146 251.048C222.736 276.613 209.587 313.74 200.874 330.752L200.871 330.757C199.678 333.084 198.571 335.033 197.568 336.524L197.503 336.617C197.333 336.868 197.164 337.113 197.001 337.336L196.872 337.504C196.733 337.692 196.591 337.878 196.455 338.046L196.262 338.271L195.935 338.647L195.661 338.917L195.576 339.001H195.577L195.576 339.003L195.44 339.135L194.971 339.507C194.161 340.056 193.335 340.564 192.498 341.049C192.269 341.183 192.037 341.306 191.806 341.435C191.15 341.8 190.483 342.147 189.81 342.476C189.608 342.574 189.406 342.674 189.202 342.769C188.274 343.203 187.339 343.617 186.386 343.987C177.411 347.465 167.421 348.127 157.829 347.654C148.929 347.215 139.863 346.639 130.759 345.839C127.116 345.521 123.468 345.165 119.822 344.77C109.469 343.645 99.1369 342.182 89.0029 340.278L88.9993 340.276C84.8595 339.498 80.7519 338.654 76.6926 337.715C74.9437 337.311 73.2037 336.891 71.4709 336.455C66.6963 335.251 61.7088 333.964 56.7196 332.51L56.6123 332.479V332.478C52.8784 331.387 49.1481 330.196 45.4965 328.871C40.6003 327.093 35.8543 325.078 31.4784 322.714C30.0442 321.939 28.8139 321.008 27.7571 319.945C22.9932 315.165 21.7146 307.775 21.0851 300.496C21.0154 299.688 20.9546 298.882 20.8973 298.079C20.6667 294.871 20.5039 291.745 20.1588 288.939C20.0568 288.111 19.9442 287.281 19.8387 286.451C18.9338 279.413 17.8752 272.362 16.7647 265.3L16.7736 265.314C15.2322 255.517 13.5995 245.703 12.1367 235.88C10.935 235.02 9.8227 234.006 8.82664 232.856C8.45826 232.43 8.10419 231.989 7.76621 231.531C6.07452 229.251 4.76015 226.617 3.87675 223.932L3.85888 223.872C3.63714 223.196 3.43149 222.513 3.24193 221.822C3.09708 221.297 2.97012 220.765 2.84136 220.233C2.80202 220.063 2.75553 219.896 2.71797 219.728C2.56061 219.043 2.42113 218.355 2.29059 217.661L2.28521 217.632C0.378933 207.371 1.38929 196.104 3.80343 186.279C4.57775 183.119 5.86171 177.42 8.131 172.942C4.62603 168.361 2.03127 163.214 0.765185 157.427C-1.91004 145.203 2.52841 130.793 12.5516 123.712V123.712Z" fill="white"/>
<path d="M202.772 225.559C153.929 229.463 101.074 231.829 53.9822 216.031C40.6204 211.548 28.1294 205.235 16.8295 196.958L16.8778 197.085C18.5408 225.024 24.7532 252.985 28.167 280.727C29.4474 291.141 28.0293 306.331 38.6748 312.08C49.8406 318.108 63.5618 321.751 75.7988 324.834C101.509 331.313 129.523 333.925 155.961 335.229C167.831 335.815 180.362 334.526 190.438 327.666C199.544 321.466 228.026 234.958 231.205 222.324C221.802 223.808 212.289 224.797 202.772 225.559V225.559Z" fill="#C78659"/>
<path d="M137.051 263.004C148.877 252.957 160.485 242.781 173.135 233.777C176.284 231.534 179.49 229.299 182.679 227.01C181.515 227.083 180.359 227.169 179.192 227.239C178.855 227.609 178.467 227.96 178.019 228.283C136.274 258.494 96.6692 292.531 51.6285 317.812C52.5047 318.13 53.4006 318.411 54.2876 318.713C85.4532 306.73 111.896 284.372 137.051 263.004V263.004Z" fill="#B8784A"/>
<path d="M139.132 298.494C141.164 296.81 143.217 295.154 145.28 293.512C146.825 292.103 148.369 290.687 149.914 289.26C164.2 276.071 179.173 264.553 194.795 253.033C207.138 243.929 218.516 233.963 228.736 222.671C225.95 223.082 223.159 223.461 220.357 223.797C216.381 229.625 209.112 234.782 205.282 237.96C194.713 246.73 183.504 254.653 172.61 263.003C157.618 274.492 141.353 290.055 125.744 303.117C116.439 310.903 106.744 318.077 96.6274 324.774C96.1661 325.08 95.6958 325.372 95.2308 325.674C112.049 322.702 126.47 308.989 139.132 298.494V298.494Z" fill="#B8784A"/>
<path d="M215.337 270.918C215.777 269.674 216.215 268.429 216.647 267.193C214.82 268.626 212.994 270.042 211.145 271.381C201.37 278.461 191.092 284.827 181.167 291.692C162.689 304.473 144.52 318.664 127.128 333.167C129.13 333.36 131.13 333.534 133.129 333.704C160.18 312.327 188.178 292.166 215.337 270.918V270.918Z" fill="#B8784A"/>
<path d="M168.356 335C176.166 334.246 183.798 332.168 190.382 327.686C192.605 326.172 195.99 319.848 199.876 310.995C189.923 319.718 179.375 327.699 168.356 335V335Z" fill="#B8784A"/>
<path d="M48.9819 282.239C60.5483 275.345 71.065 266.451 81.9144 258.487C86.8464 254.868 91.8088 251.299 96.7783 247.74C82.6172 256.211 68.118 264.233 54.5756 273.9C46.0277 280.002 37.8465 286.567 29.1323 292.411C29.2003 293.122 29.2807 293.832 29.3666 294.54C35.3679 289.726 42.478 286.112 48.9819 282.239V282.239Z" fill="#B8784A"/>
<path d="M64.9658 276.104C55.1591 261.079 46.4825 245.4 37.3892 229.944C31.6579 220.205 23.634 210.677 20.6351 199.638C19.3493 198.767 18.0707 197.879 16.8136 196.958L16.8619 197.085C17.2767 204.043 17.9742 211.003 18.8379 217.959C29.1364 242.692 45.1019 265.607 59.7477 287.749C69.3184 302.218 80.7096 315.279 92.0525 328.382C95.5324 329.036 99.0445 329.614 102.567 330.159C90.0514 312.134 76.9668 294.489 64.9658 276.104V276.104Z" fill="#B8784A"/>
<path d="M134.082 329.248C125.052 317.741 118.085 304.359 110.851 291.686C96.7883 267.053 78.8897 244.656 65.6906 219.555C63.5 218.965 61.3148 218.351 59.1438 217.688C67.3752 238.501 82.0174 257.407 93.8502 275.96C106.332 295.525 119.12 314.901 132.748 333.677C134.528 333.829 136.294 333.946 138.068 334.082C136.711 332.488 135.368 330.886 134.082 329.248V329.248Z" fill="#B8784A"/>
<path d="M220.567 201.385C219.709 201.483 218.848 201.572 217.99 201.665C219.449 205.755 220.86 209.872 222.352 213.949C221.803 209.761 221.152 205.571 220.567 201.385Z" fill="#B8784A"/>
<path d="M199.067 240.42C191.503 228.641 183.297 217.369 177.333 204.705C175.684 204.792 174.039 204.885 172.385 204.962C182.501 227.176 197.481 246.575 211.238 266.712C211.594 265.772 211.95 264.822 212.306 263.869C208.135 255.917 203.926 247.988 199.067 240.42Z" fill="#B8784A"/>
<path d="M169.755 271.659C164.82 263.858 159.351 256.41 154.546 248.528C150.845 242.456 146.63 235.597 145.425 228.372C143.887 228.379 142.349 228.395 140.811 228.386C154.344 250.146 166.093 272.857 179.391 294.74C184.537 303.21 190.344 311.32 195.927 319.55C196.406 318.618 196.903 317.597 197.407 316.54C189.09 301.066 179.062 286.362 169.755 271.659Z" fill="#B8784A"/>
<path d="M113.946 229.032C113.66 228.465 113.465 227.902 113.334 227.345C110.055 227.093 106.78 226.809 103.52 226.457C104.495 227.664 105.58 228.881 106.126 229.731C108.2 232.953 110.13 236.283 112.12 239.559C115.598 245.289 119.058 251.029 122.463 256.801C129.432 268.618 135.721 280.789 142.527 292.688C150.893 307.312 160.819 320.925 170.385 334.773C171.74 334.599 173.085 334.369 174.421 334.104C153.021 299.8 132.127 265.176 113.946 229.032Z" fill="#B8784A"/>
<path d="M46.82 292.947C39.5901 281.678 32.0293 270.385 24.9711 258.808C26.0011 265.365 26.9847 271.914 27.8234 278.45C31.7343 283.754 35.79 288.82 39.3666 293.609C46.4784 303.135 54.2359 312.14 61.9594 321.166C64.6149 321.942 67.258 322.657 69.876 323.344C61.65 313.626 53.7119 303.687 46.82 292.947Z" fill="#B8784A"/>
<path d="M160.875 335.348C171.127 335.348 181.547 333.606 190.193 327.816C183.663 332.19 176.118 334.227 168.4 334.973C168.897 334.644 169.392 334.313 169.886 333.982C167.949 331.183 166 328.394 164.053 325.602C158.548 324.815 153.101 323.719 147.822 322.265C143.844 325.325 139.879 328.399 135.932 331.5C136.646 332.362 137.368 333.22 138.096 334.073C136.322 333.937 134.555 333.821 132.776 333.669C130.897 333.508 129.019 333.344 127.138 333.163C128.232 332.249 129.332 331.337 130.433 330.425C126.66 325.169 122.946 319.867 119.286 314.529C112.901 319.063 106.117 322.902 98.8762 324.864C100.112 326.623 101.344 328.387 102.571 330.152C99.0479 329.606 95.5357 329.029 92.0558 328.374C86.4389 321.884 80.8095 315.407 75.3947 308.762C71.355 311.008 67.2366 313.106 63.036 315.025C65.2928 317.814 67.5889 320.572 69.9101 323.313C67.2921 322.627 64.649 321.911 61.9935 321.135C60.8204 319.765 59.6455 318.394 58.4742 317.022C57.1026 317.596 55.7221 318.152 54.3326 318.687C53.4456 318.385 52.5497 318.104 51.6735 317.786C53.3509 316.845 55.0229 315.89 56.6842 314.925C50.7472 307.954 44.8817 300.921 39.4007 293.578C38.4243 292.271 37.4104 290.942 36.3768 289.594C33.9376 291.123 31.5646 292.739 29.3418 294.522C29.2559 293.814 29.1755 293.104 29.1075 292.393C31.1783 291.005 33.2187 289.574 35.2412 288.12C32.8289 284.991 30.32 281.758 27.8665 278.432C27.9648 279.193 28.0596 279.957 28.1544 280.719C29.3865 290.737 28.1222 305.173 37.4962 311.375C37.8682 311.62 38.2562 311.852 38.6622 312.072C38.9232 312.214 39.1861 312.353 39.4508 312.491C50.4718 318.272 63.8372 321.816 75.7863 324.826C100.843 331.14 128.089 333.783 153.931 335.119C154.604 335.155 155.276 335.189 155.948 335.221C157.581 335.302 159.226 335.348 160.875 335.348V335.348ZM173.051 331.831C175.322 330.268 177.572 328.673 179.798 327.049C176.413 326.9 173.008 326.652 169.609 326.292C170.755 328.14 171.903 329.985 173.051 331.831ZM133.239 328.115C136.292 325.609 139.368 323.117 142.463 320.643C135.564 318.36 129.039 315.404 123.166 311.663C122.962 311.818 122.76 311.972 122.556 312.128C125.868 317.653 129.366 323.054 133.239 328.115V328.115ZM190.193 327.816C190.242 327.782 190.292 327.75 190.34 327.716C190.292 327.75 190.243 327.782 190.193 327.816ZM190.356 327.705C190.379 327.691 190.403 327.675 190.426 327.659C190.403 327.675 190.379 327.691 190.356 327.705ZM98.1216 323.789C104.427 319.569 110.57 315.159 116.553 310.525C112.05 303.893 107.624 297.212 103.247 290.495C96.9699 295.175 90.5447 299.639 83.921 303.746C88.6492 310.431 93.4113 317.094 98.1216 323.789ZM60.9456 312.417C64.8565 310.086 68.7245 307.695 72.5656 305.248C68.0682 299.589 63.7496 293.787 59.751 287.741C58.7138 286.173 57.6713 284.603 56.6234 283.028C54.9531 282.445 53.4242 281.465 52.2565 280.184C51.1656 280.88 50.0641 281.559 48.9571 282.221C46.813 283.496 44.6063 284.744 42.396 286.016C43.891 288.317 45.3806 290.617 46.8542 292.917C51.1996 299.687 55.9599 306.139 60.9456 312.417ZM81.0741 299.71C87.6281 295.356 94.0998 290.86 100.507 286.273C98.2861 282.84 96.0776 279.399 93.878 275.951C90.1531 270.109 86.1492 264.233 82.1543 258.275C82.0666 258.339 81.9772 258.405 81.8896 258.469C78.4794 260.973 75.1014 263.568 71.7144 266.162C75.5681 267.091 78.9926 268.814 80.7451 272.391C81.7716 274.485 82.0362 277.663 80.45 279.608C77.723 282.952 74.2251 284.118 70.4609 284.358C73.9444 289.513 77.4941 294.621 81.0741 299.71V299.71ZM41.0137 283.888C44.1271 281.572 47.2243 279.233 50.3502 276.931C50.0444 275.964 49.9103 274.92 49.9943 273.818C50.0104 273.598 50.0354 273.376 50.0676 273.156C41.6611 260.436 33.3189 247.398 26.2982 233.852C24.8104 233.607 23.4155 233.098 22.1262 232.382H20.8404C22.1637 241.197 23.6319 250.002 25.0142 258.793C30.1876 267.277 35.6293 275.606 41.0137 283.888V283.888ZM102.619 278.024C102.739 273.562 103.765 269.049 105.806 264.689C108.556 258.816 112.778 253.511 117.9 249.054C117.127 247.763 116.351 246.474 115.573 245.184C112.853 250.247 108.377 253.58 101.99 253.58C100.904 253.58 99.7614 253.484 98.5633 253.284C96.1938 252.885 93.9782 252.166 91.9396 251.177C90.3534 252.316 88.769 253.459 87.1864 254.607C92.3705 262.387 97.6155 270.134 102.619 278.024V278.024ZM67.2349 265.395C71.8539 262.477 76.5338 259.666 81.2279 256.889C76.6929 250.104 72.1973 243.203 68.1665 236.122C67.3422 236.524 66.457 236.848 65.5056 237.08C64.54 237.314 63.5743 237.425 62.6194 237.425H62.6015C58.0254 237.42 53.6817 234.882 50.7955 231.304C46.9561 232.087 42.9146 232.372 38.8982 232.506C45.1839 243.25 51.3087 254.079 57.7893 264.698C58.1416 264.646 58.501 264.619 58.8658 264.619C59.1609 264.619 59.4577 264.635 59.7582 264.673C61.9953 264.941 64.6061 265.082 67.2349 265.395V265.395ZM86.5998 253.723C88.1985 252.783 89.7972 251.846 91.3942 250.903C83.9479 247.055 78.939 239.559 77.3492 231.089C77.1042 229.784 76.5999 228.775 75.9258 228.032C75.0567 229.575 74.0803 231.048 72.9447 232.354C77.2848 239.598 81.9128 246.678 86.5998 253.723V253.723Z" fill="#BE7E51"/>
<path d="M54.335 318.72C55.7245 318.185 57.105 317.629 58.4766 317.055C57.8793 316.356 57.2838 315.658 56.6865 314.957C55.0253 315.923 53.3532 316.878 51.6759 317.818C52.5521 318.137 53.448 318.417 54.335 318.72V318.72ZM63.0384 315.057C67.239 313.139 71.3574 311.041 75.397 308.795C74.4475 307.629 73.5033 306.458 72.568 305.281C68.7268 307.727 64.8588 310.118 60.9479 312.45C61.64 313.323 62.3374 314.192 63.0384 315.057V315.057ZM83.9234 303.779C90.5471 299.671 96.9723 295.208 103.249 290.528C102.335 289.122 101.421 287.715 100.509 286.306C94.1021 290.893 87.6304 295.388 81.0765 299.743C82.0243 301.089 82.972 302.434 83.9234 303.779V303.779Z" fill="#B57749"/>
<path d="M98.8801 324.865C106.121 322.903 112.905 319.064 119.289 314.53C118.376 313.198 117.465 311.862 116.557 310.526C110.573 315.16 104.431 319.57 98.1255 323.79C98.3776 324.149 98.628 324.507 98.8801 324.865V324.865ZM122.56 312.129C122.764 311.973 122.966 311.819 123.17 311.664C122.68 311.351 122.195 311.034 121.716 310.711C121.995 311.185 122.278 311.657 122.56 312.129V312.129Z" fill="#B57749"/>
<path d="M132.727 333.683C131.944 332.605 131.164 331.523 130.384 330.439C129.283 331.351 128.183 332.263 127.089 333.177C128.97 333.358 130.848 333.522 132.725 333.683H132.727ZM135.883 331.514C139.83 328.413 143.795 325.339 147.773 322.279C145.966 321.782 144.177 321.242 142.414 320.657C139.319 323.131 136.243 325.623 133.19 328.129C133.478 328.506 133.768 328.88 134.061 329.254C134.657 330.014 135.266 330.766 135.883 331.514Z" fill="#B57749"/>
<path d="M168.349 334.966C176.067 334.221 183.612 332.184 190.143 327.81C190.193 327.776 190.241 327.744 190.289 327.71C190.295 327.706 190.3 327.704 190.305 327.699C190.329 327.685 190.352 327.669 190.375 327.652C190.554 327.531 190.743 327.366 190.937 327.184C189.835 327.204 188.728 327.214 187.616 327.214C185.016 327.214 182.387 327.159 179.747 327.043C177.521 328.666 175.271 330.262 173 331.824C173.467 332.572 173.934 333.323 174.401 334.07C173.065 334.335 171.72 334.566 170.364 334.739C170.187 334.485 170.012 334.23 169.835 333.976C169.342 334.307 168.846 334.637 168.349 334.966V334.966Z" fill="#B57749"/>
<path d="M29.328 294.552C31.5508 292.769 33.9238 291.152 36.363 289.623C35.9875 289.135 35.6084 288.643 35.2275 288.15C33.2049 289.604 31.1645 291.034 29.0937 292.422C29.1617 293.134 29.2422 293.843 29.328 294.552ZM42.3822 286.045C44.5925 284.773 46.7992 283.525 48.9433 282.25C50.0503 281.589 51.1518 280.909 52.2427 280.213C51.3861 279.276 50.7244 278.18 50.3364 276.961C47.2105 279.262 44.1133 281.601 40.9999 283.917C41.4613 284.627 41.9227 285.335 42.3822 286.045V286.045ZM71.7007 266.192C75.0876 263.597 78.4656 261.002 81.8758 258.499C81.9634 258.434 82.0528 258.368 82.1405 258.304C81.8311 257.842 81.5235 257.381 81.2142 256.918C76.52 259.695 71.8401 262.506 67.2211 265.425C68.7304 265.605 70.2468 265.841 71.7007 266.192V266.192ZM87.1726 254.636C88.7552 253.488 90.3396 252.345 91.9258 251.206C91.7416 251.117 91.561 251.026 91.3804 250.933C89.7835 251.875 88.1848 252.812 86.5861 253.753C86.7828 254.048 86.9777 254.341 87.1726 254.636Z" fill="#B57749"/>
<path d="M102.567 330.147C101.341 328.382 100.109 326.619 98.8729 324.859C98.6207 324.501 98.3704 324.144 98.1182 323.784C93.408 317.089 88.6458 310.426 83.9177 303.741C82.9664 302.397 82.0186 301.052 81.0708 299.705C77.4907 294.616 73.941 289.509 70.4575 284.353C69.9175 284.387 69.3721 284.403 68.8213 284.403C65.631 284.403 62.3067 283.887 59.1361 283.577C58.2795 283.495 57.4337 283.305 56.62 283.023C57.668 284.598 58.7105 286.168 59.7477 287.737C63.7462 293.783 68.0649 299.584 72.5623 305.244C73.4976 306.42 74.4418 307.592 75.3913 308.758C80.8061 315.403 86.4356 321.88 92.0525 328.369C95.5324 329.024 99.0445 329.601 102.567 330.147V330.147ZM50.0643 273.152C50.6473 269.228 53.7284 265.296 57.786 264.693C51.3054 254.075 45.1806 243.245 38.8949 232.501C37.3641 232.551 35.8352 232.582 34.3223 232.608C33.4514 233.039 32.5377 233.379 31.5827 233.612C31.5648 233.615 31.547 233.621 31.5309 233.624C30.4257 233.889 29.3617 234.012 28.3317 234.012H28.3209C27.6289 234.012 26.9529 233.955 26.2949 233.848C33.3155 247.394 41.6577 260.432 50.0643 273.152Z" fill="#B57749"/>
<path d="M138.068 334.093C137.341 333.24 136.618 332.381 135.905 331.519C135.288 330.772 134.678 330.019 134.082 329.259C133.789 328.885 133.499 328.512 133.211 328.134C129.338 323.074 125.84 317.673 122.528 312.147C122.246 311.675 121.963 311.203 121.684 310.729C119.522 309.277 117.457 307.712 115.499 306.03C107.076 298.787 102.312 288.558 102.591 278.044C97.5877 270.154 92.3427 262.407 87.1586 254.626C86.9637 254.331 86.7688 254.038 86.5721 253.743C81.885 246.697 77.257 239.618 72.917 232.373C71.574 233.92 70.0093 235.231 68.1387 236.141C72.1695 243.223 76.6651 250.124 81.2001 256.908C81.5095 257.371 81.8171 257.833 82.1265 258.294C86.1214 264.253 90.1253 270.129 93.8502 275.971C96.0498 279.419 98.2583 282.859 100.479 286.293C101.391 287.702 102.305 289.109 103.219 290.515C107.597 297.232 112.022 303.912 116.525 310.545C117.434 311.881 118.344 313.217 119.258 314.549C122.918 319.887 126.632 325.189 130.406 330.445C131.185 331.528 131.965 332.61 132.748 333.689C134.528 333.841 136.294 333.957 138.068 334.093V334.093Z" fill="#B57749"/>
<path d="M122.453 245.487C126.015 242.968 129.878 240.824 133.891 239.128C132.803 237.97 131.975 236.68 131.546 235.348C130.582 232.355 127.566 230.756 124.66 230.756C124.374 230.756 124.089 230.772 123.807 230.802C121.947 233.277 120.259 235.922 118.626 238.197C119.89 240.632 121.165 243.064 122.453 245.487V245.487ZM159.173 235.684C160.106 235.341 161.047 235.015 161.991 234.704C160.725 233.855 159.23 233.41 157.767 233.41C157.569 233.41 157.372 233.419 157.175 233.435C156.904 233.887 156.609 234.331 156.294 234.761C157.399 234.863 158.349 235.203 159.173 235.684V235.684Z" fill="#BE7E51"/>
<path d="M170.385 334.743C171.74 334.569 173.085 334.338 174.421 334.074C173.954 333.326 173.487 332.575 173.021 331.828C171.873 329.982 170.725 328.137 169.578 326.289C167.724 326.093 165.869 325.864 164.022 325.599C165.97 328.391 167.919 331.18 169.855 333.979C170.033 334.233 170.208 334.489 170.385 334.743ZM117.869 249.051C119.33 247.78 120.861 246.58 122.454 245.453C121.167 243.03 119.892 240.598 118.627 238.163C118.331 238.574 118.036 238.975 117.742 239.359C117.217 241.464 116.485 243.427 115.543 245.182C116.321 246.471 117.097 247.76 117.869 249.051Z" fill="#B57749"/>
<path d="M69.876 323.328C67.5548 320.586 65.2587 317.829 63.0019 315.039C62.3009 314.174 61.6035 313.305 60.9115 312.432C55.9258 306.153 51.1655 299.701 46.82 292.931C45.3465 290.631 43.8569 288.332 42.3619 286.03C41.9023 285.32 41.4409 284.612 40.9796 283.902C35.5951 275.621 30.1535 267.291 24.98 258.808C26.0101 265.363 26.9936 271.91 27.8323 278.446C30.2858 281.772 32.7947 285.005 35.2071 288.135C35.588 288.628 35.9671 289.12 36.3426 289.608C37.3762 290.957 38.3902 292.285 39.3666 293.593C44.8476 300.935 50.713 307.968 56.65 314.939C57.2473 315.64 57.8428 316.337 58.4401 317.037C59.6114 318.408 60.7863 319.78 61.9594 321.15C64.6149 321.926 67.258 322.641 69.876 323.328V323.328Z" fill="#B57749"/>
<path d="M205.412 202.828C156.569 206.732 103.715 209.098 56.6218 193.3C43.26 188.817 30.7691 182.505 19.4691 174.227L19.5174 174.354C20.678 193.865 24.0524 213.386 27.1479 232.835C38.6606 232.268 52.5553 233.59 62.1976 226.596C64.9461 224.604 67.7072 225.104 69.6689 226.753C72.8967 225.732 76.5 226.834 77.3047 231.117C79.3612 242.075 87.1419 251.404 98.5188 253.311C110.518 255.321 116.893 246.866 118.402 235.868C119.352 228.947 129.593 229.321 131.533 235.344C133.967 242.898 149.225 249.013 151.533 238.507C153.069 231.517 162.236 232.068 164.664 237.983C166.721 242.992 171.381 247.599 176.138 250.083C181.855 253.067 184.398 251.731 185.961 245.439C187.3 240.051 195.429 237.992 198.341 243.316C202.284 250.526 208.8 253.809 215.839 254.248C224.433 230.401 232.264 205.874 233.845 199.593C224.442 201.077 214.93 202.066 205.412 202.828V202.828Z" fill="#B07246"/>
<path d="M222.206 246.725C214.886 251.163 206.306 250.019 200.782 243.404C199.702 242.111 198.864 240.752 198.193 239.348C193.944 245.52 188.83 250.961 182.776 253.86C172.574 258.742 163.013 252.072 162.964 240.995C162.954 238.34 166.636 222.371 160.643 225.586C159.116 226.405 158.349 231.29 157.399 232.979C156.271 234.985 154.696 236.854 152.782 238.168C149.336 240.532 144.647 241.505 141.139 238.701C137.328 235.654 136.659 227.855 135.888 222.258C126.974 222.807 121.801 234.588 116.735 240.596C112.647 245.441 107.228 249.343 100.742 249.956C85.8407 251.367 82.0675 237.864 84.6014 225.902C85.1165 223.463 87.6128 217.412 86.4111 215.11C83.8915 210.289 79.2438 220.956 78.2907 223.106C75.6727 229.012 72.275 235.418 65.4528 237.079C59.1922 238.601 52.8868 234.901 49.5803 229.683C46.6547 225.062 46.2864 219.849 46.8783 214.649C44.8289 217.685 43.7292 222.029 42.134 224.815C39.829 228.837 36.147 232.492 31.5333 233.615C22.3327 235.854 15.6125 228.347 12.9873 220.375C9.39113 209.452 10.2102 196.455 12.9194 185.422C14.1819 180.275 16.8911 167.843 23.4736 167.085C24.8148 165.166 27.1181 164.025 30.0866 164.912C37.1663 167.024 41.3919 171.813 45.5603 177.664C50.2759 184.284 55.4726 189.331 63.1102 192.469C78.9541 198.98 97.4804 197.979 114.238 197.705C135.508 197.358 156.759 195.888 177.873 193.297C197.978 190.828 217.807 187.512 238.03 190.722C241.038 191.2 242.576 194.224 242.953 196.881C245.512 214.871 238.459 236.872 222.206 246.725V246.725Z" fill="#F06898"/>
<path d="M174.952 248.304C166.751 244.732 162.611 236.558 164.498 228.533L164.065 228.415C164.439 232.544 163.012 239.37 163.019 241.025C163.067 252.102 172.629 258.772 182.831 253.888C185.39 252.663 187.772 250.965 190 248.967C185.452 250.716 180.09 250.541 174.952 248.304V248.304Z" fill="#EF568C"/>
<path d="M201.901 242.163C200.774 241.058 200.155 239.827 199.925 238.588C199.644 239.339 199.322 240.047 198.975 240.729C199.504 241.65 200.089 242.556 200.815 243.425C204.994 248.431 210.924 250.298 216.732 248.989C211.411 248.556 206.198 246.376 201.901 242.163Z" fill="#EF568C"/>
<path d="M60.9389 227.152C52.1979 225.721 47.8775 218.71 47.5931 211.01C43.4265 217.115 36.9495 222.224 29.9163 223.474C25.3848 224.28 20.603 222.98 18.0691 218.853C16.533 216.353 16.2093 213.501 16.5026 210.664C14.7358 211.231 12.9833 211.839 11.2523 212.517C11.6421 215.212 12.2286 217.848 13.0584 220.369C15.6835 228.341 22.4038 235.848 31.6044 233.609C36.2181 232.486 39.9001 228.831 42.2051 224.809C43.8003 222.023 44.9 217.68 46.9494 214.643C46.3575 219.844 46.7258 225.056 49.6514 229.677C52.9579 234.895 59.2633 238.595 65.524 237.073C72.3461 235.412 75.7438 229.006 78.3618 223.1C78.6909 222.358 79.4616 220.598 80.4326 218.813C75.9316 224.745 68.9198 228.456 60.9389 227.152Z" fill="#EF568C"/>
<path d="M111.688 241.008C110.261 241.148 108.94 241.137 107.713 241.001C105.84 241.341 103.823 241.307 101.615 240.77C95.6707 239.329 92.4071 235.431 91.0928 230.634C90.3507 229.297 89.8339 227.838 89.6211 226.303C89.2169 223.383 89.8231 220.407 90.5885 217.586C91.0678 215.815 91.674 214.081 92.1693 212.314C92.2641 211.976 92.3857 211.012 92.527 210.218C90.0109 209.733 87.4859 209.261 84.9412 208.834C84.9108 209.066 84.8786 209.297 84.8196 209.531C84.2831 211.654 83.4712 213.694 82.4376 215.595C83.8468 213.846 85.3257 213.051 86.4093 215.125C87.611 217.425 85.1146 223.478 84.5978 225.917C82.0657 237.879 85.8389 251.382 100.74 249.971C107.226 249.357 112.645 245.455 116.733 240.611C117.005 240.287 117.278 239.941 117.552 239.586C115.669 240.307 113.709 240.81 111.688 241.008V241.008Z" fill="#EF568C"/>
<path d="M143.577 231.767C138.999 229.324 136.934 225.213 136.599 220.746C135.989 220.58 135.38 220.406 134.77 220.242C134.552 221.034 134.296 221.821 134.004 222.599C134.623 222.441 135.256 222.323 135.914 222.282C136.685 227.879 137.354 235.678 141.165 238.725C144.673 241.529 149.362 240.556 152.808 238.192C154.721 236.878 156.297 235.009 157.425 233.003C157.735 232.454 158.026 231.56 158.33 230.583C154.065 233.563 148.738 234.523 143.577 231.767Z" fill="#EF568C"/>
<path d="M239.504 204.142C228.168 213.379 213.964 216.412 199.708 217.704C168.866 220.499 137.314 219.587 106.613 215.677C82.5435 212.611 55.9576 205.496 36.9771 189.218C24.0748 182.249 13.1361 172.356 10.1354 158.649C7.65327 147.303 13.1092 136.094 22.4117 129.522C27.7586 125.745 33.8029 123.841 40.0457 123.227C37.045 115.931 37.0861 107.396 41.3153 100.08C46.5835 90.9728 56.8213 86.9582 66.7318 87.7307C66.401 83.1849 67.9657 78.6785 72.5633 74.7569C80.149 68.2852 89.0617 69.1078 97.3681 72.3875C95.8266 32.2913 161.261 53.2603 149.599 13.3662C145.882 0.644592 186.341 21.6995 197.802 28.7666C217.202 40.7318 221.196 64.0202 211.346 81.8205C220.141 86.9456 226.557 95.7778 227.708 106.572C228.449 113.514 226.65 120.361 223.12 126.191C224.813 127.026 226.424 127.929 227.921 128.875C241.578 137.508 252.191 151.607 254.416 167.841C256.367 182.065 250.514 195.169 239.504 204.142V204.142Z" fill="#F06898"/>
<path d="M222.634 196.027C183.983 209.801 137.889 212.472 97.8801 203.851C80.0638 200.013 60.3429 193.095 46.1925 181.214C32.9737 170.116 27.6466 150.613 40.2949 136.668C53.088 122.564 77.4476 127.591 93.4703 131.484C105.425 134.39 117.15 138.456 129.319 140.424C136.612 141.602 144.137 141.738 151.513 141.867C167.327 142.144 183.373 141.325 198.743 137.341C207.77 135 217.248 131.252 223.945 124.769C224.973 122.861 225.822 120.86 226.464 118.791C221.566 120.34 216.615 121.649 211.681 122.75C187.978 128.04 163.455 128.827 139.629 124.052C130.104 122.144 120.525 120.402 111.305 117.264C102.708 114.338 92.3509 110.059 89.7919 100.385C82.1686 71.5669 135.178 78.2013 148.566 80.6316C170.328 84.5818 192.201 85.045 212.643 79.2957C213.981 76.4292 214.978 73.4482 215.628 70.4171C211.452 72.504 207.151 74.3655 202.722 75.9624C184.428 82.5575 163.096 84.5514 144.294 78.7557C128.204 73.7969 118.672 60.5191 125.859 43.9545L125.993 43.6738C125.4 43.8079 124.808 43.9438 124.201 44.0475C123.565 44.1566 122.968 44.3533 122.41 44.6198C107.481 45.1974 97.3419 58.1783 97.3759 72.4128C89.0694 69.1331 80.1568 68.3105 72.571 74.7822C67.9734 78.7038 66.4087 83.2102 66.7395 87.756C56.829 86.9834 46.5913 90.9981 41.3231 100.106C37.0939 107.421 37.0528 115.957 40.0534 123.253C33.8107 123.866 27.7664 125.771 22.4195 129.547C13.117 136.119 7.66105 147.328 10.1431 158.674C13.1438 172.381 24.0826 182.274 36.9848 189.243C55.9653 205.521 82.5512 212.637 106.621 215.702C137.322 219.613 168.874 220.525 199.716 217.73C213.972 216.437 228.176 213.404 239.511 204.168C246.747 198.27 251.736 190.582 253.766 181.972C243.562 187.712 232.881 192.376 222.634 196.027V196.027Z" fill="#EF568C"/>
<path d="M69.8611 213.904C69.2209 213.074 68.359 212.473 67.3057 212.291C66.3078 212.121 65.1848 212.375 64.3569 212.96C63.1176 213.834 62.7099 215.124 62.7063 216.574C62.7028 217.466 62.6527 218.273 63.0175 219.128C64.0869 221.635 67.2199 222.173 69.0653 220.167C69.6948 219.483 69.9165 218.706 70.2116 217.863C70.6747 216.542 70.7767 215.09 69.8611 213.904V213.904Z" fill="#F280B1"/>
<path d="M116.691 231.395C116.766 229.235 116.401 227.434 115.26 225.581C114.852 224.923 114.38 224.215 113.781 223.711C113.134 223.171 112.394 222.827 111.56 222.681C110.233 222.783 109.904 222.736 110.575 222.543C109.659 222.362 108.338 222.727 107.807 223.557C108.236 223.378 108.175 223.484 107.624 223.877C107.29 224.117 107.032 224.423 106.857 224.793C106.38 225.515 106.267 226.289 106.049 227.096C105.766 228.142 105.584 229.161 105.389 230.224C104.915 232.827 104.677 234.95 105.875 237.032L105.954 237.205C106.419 238.219 107.34 239.281 108.558 239.356C110.959 239.506 112.993 239.267 114.643 237.303C115.977 235.719 116.623 233.396 116.691 231.395Z" fill="#F280B1"/>
<path d="M197.557 231.451C197.416 229.164 196.604 226.815 194.943 225.194C193.58 223.866 190.535 222.828 188.981 224.551C188.834 224.713 188.128 225.935 188.495 225.314C188.022 226.112 187.708 226.702 187.52 227.65C187.295 228.785 187.23 229.939 186.983 231.074C186.603 232.832 185.592 235.225 184.905 236.925C183.756 239.767 185.778 242.337 188.722 242.324C193.947 242.301 197.892 236.915 197.557 231.451Z" fill="#F280B1"/>
<path d="M231.614 218.532C229.223 214.981 223.615 218.035 225.062 222.001L225.083 222.069C224.473 224.464 223.209 226.218 222.038 228.774C221.308 230.363 220.461 232.184 221.264 234.242C222.165 236.549 224.443 237.252 226.707 237.014C230.693 236.595 233.964 233.01 234.827 228.727C235.677 224.514 233.799 221.78 231.614 218.532V218.532Z" fill="#F280B1"/>
<path d="M21.7344 149.918C22.5159 147.889 19.4347 146.442 18.6693 148.477C17.6321 151.238 16.9508 155.551 19.7298 157.549C20.2663 157.935 21.0638 157.722 21.1854 157.016C21.6003 154.586 20.8135 152.307 21.7344 149.918V149.918Z" fill="#EC5186"/>
<path d="M42.0828 136.181C40.4841 134.872 37.8535 135.244 35.9777 135.7C35.1247 135.909 34.5971 136.982 34.6758 137.794C34.767 138.713 35.4752 139.382 36.346 139.586C37.2616 139.8 38.2595 139.804 39.1983 139.822C40.1836 139.842 41.1761 139.711 41.9612 139.058C42.841 138.327 43.0466 136.97 42.0828 136.181V136.181Z" fill="#EC5186"/>
<path d="M44.6715 154.779C44.6161 154.142 43.8596 153.382 43.3464 153.141C42.6222 152.801 41.8049 152.978 41.0539 153.093C39.9005 153.272 38.9956 154.252 39.1154 155.46C39.2245 156.576 40.3207 157.578 41.4813 157.399C42.2109 157.286 43.046 157.24 43.6701 156.8C44.228 156.406 44.7341 155.489 44.6715 154.779V154.779Z" fill="#EC5186"/>
<path d="M71.1628 129.37C71.161 129.004 71.1109 128.652 70.9446 128.281C70.1971 126.602 67.9636 126.057 66.7047 127.554C65.5244 128.956 66.2952 131.364 68.1907 131.613C68.7272 131.683 69.185 131.663 69.6696 131.504C70.7282 131.361 71.4865 130.477 71.1628 129.37Z" fill="#EC5186"/>
<path d="M69.3785 164.206C68.5184 163.7 67.7512 163.213 67.1146 162.249C66.3653 161.116 64.6933 160.881 63.6078 161.647C62.3883 162.51 62.3596 163.953 63.007 165.153C64.1264 167.23 65.9218 168.49 68.1643 169.096C69.0155 169.327 69.9615 168.853 70.5158 168.236C71.8374 166.763 70.9307 165.118 69.3785 164.206Z" fill="#EC5186"/>
<path d="M98.7358 140.814C98.43 140.034 97.8434 139.471 97.2998 138.858C96.1697 137.581 94.4011 137.162 93.0331 138.42C91.7473 139.6 91.8367 141.553 93.1136 142.708C94.4655 143.931 96.4629 145.533 98.2154 143.922C99.1077 143.101 99.1578 141.885 98.7358 140.814Z" fill="#EC5186"/>
<path d="M96.4889 162.116C95.2103 161.955 93.9335 162.747 93.7207 164.074C93.6152 164.72 93.4757 165.374 93.4364 166.029C93.3648 167.25 93.9961 168.568 95.3516 168.738C96.7303 168.911 97.6942 168.09 98.0608 166.823C98.2432 166.193 98.329 165.53 98.447 164.886C98.6723 163.652 97.7657 162.277 96.4889 162.116V162.116Z" fill="#EC5186"/>
<path d="M119.989 145.663C119.56 145.03 118.927 144.887 118.244 144.635C117.291 144.279 116.189 144.731 116.007 145.802C115.823 146.865 116.708 147.666 117.727 147.65C118.453 147.637 119.099 147.716 119.714 147.262C120.22 146.888 120.341 146.187 119.989 145.663Z" fill="#EC5186"/>
<path d="M71.4137 188.015C69.9885 186.883 68.4631 188.859 69.6433 190.12C70.8504 191.41 72.5403 193.995 74.6022 193.641C74.9688 193.579 75.364 193.307 75.3997 192.899C75.5982 190.667 72.9141 189.208 71.4137 188.015Z" fill="#EC5186"/>
<path d="M102.475 193.534L102.389 193.414C101.846 192.278 100.891 191.522 99.571 191.066L99.2777 190.975L99.1722 190.91L98.743 190.66C98.2727 190.365 97.772 190.082 97.3893 189.678C96.0177 188.228 93.4372 190.154 94.2402 191.903C94.5388 192.55 94.6962 193.196 95.0502 193.829C95.1897 194.075 95.331 194.32 95.4866 194.556C95.4794 194.546 96.0356 195.268 95.8407 194.987C96.4487 195.862 96.9297 196.62 97.9079 197.135C98.5338 197.464 99.1007 197.622 99.8285 197.586C100.081 197.575 101.322 197.466 100.673 197.484C102.598 197.434 103.512 194.991 102.475 193.534V193.534Z" fill="#EC5186"/>
<path d="M133.014 173.603C132.703 173.161 132.184 172.946 131.668 172.885C130.865 172.793 130.357 173.021 129.65 173.375C128.737 173.833 127.841 174.395 127.027 175.071C126.09 175.849 125.745 177.167 126.487 178.216C127.236 179.277 128.583 179.382 129.633 178.756C130.5 178.24 131.289 177.607 131.998 176.943C132.53 176.448 132.943 176.067 133.163 175.357C133.347 174.767 133.391 174.135 133.014 173.603V173.603Z" fill="#EC5186"/>
<path d="M155.212 152.084C154.695 150.022 151.405 150.855 150.064 151.478C149.152 151.903 148.561 152.806 148.817 153.833C149.046 154.748 149.965 155.573 150.976 155.396C152.446 155.138 155.723 154.128 155.212 152.084V152.084Z" fill="#EC5186"/>
<path d="M80.0427 91.0479C78.0863 92.8075 76.62 95.8654 77.6035 98.5031C78.1704 100.023 80.3181 100.057 81.0208 98.6408C81.4894 97.6966 81.5752 96.6719 81.8577 95.6705C82.1349 94.6852 82.4246 93.7052 82.6875 92.7163C83.0469 91.3662 81.1156 90.0804 80.0427 91.0479V91.0479Z" fill="#EC5186"/>
<path d="M106.65 117.12C106.464 114.38 105.105 111.816 104.813 109.073C104.572 106.8 101.43 107.252 101.372 109.414C101.294 112.406 101.297 115.923 103.391 118.336C103.781 118.785 104.389 119.235 105.037 119.089C105.358 119.015 105.618 118.947 105.899 118.767C106.442 118.413 106.693 117.746 106.65 117.12Z" fill="#EC5186"/>
<path d="M63.0627 110.336C62.9894 109.195 62.0488 108.38 61.5159 107.436C60.9704 106.468 60.4447 105.306 60.7076 104.201C61.0921 102.579 58.4401 101.706 57.8732 103.308C57.1972 105.227 56.8736 107.196 57.8839 109.07C58.7548 110.685 60.7076 112.432 62.5996 111.354C62.9411 111.159 63.0877 110.705 63.0627 110.336V110.336Z" fill="#EC5186"/>
<path d="M88.9112 118.232C89.1383 117.018 88.237 115.662 86.9834 115.505C85.7263 115.346 84.4602 116.124 84.2545 117.433C84.09 118.481 83.7449 119.668 83.9005 120.723C84.2259 122.928 87.1032 123.425 88.1476 121.453C88.6465 120.51 88.718 119.273 88.9112 118.232V118.232Z" fill="#EC5186"/>
<path d="M102.121 78.7803C99.8662 76.8097 96.4703 78.5157 94.5408 80.227C93.6664 81.0049 93.2926 82.2192 94.0222 83.251C94.6535 84.1433 96.1467 84.5296 97.0444 83.7696C97.799 83.1294 98.5769 82.6644 99.5265 82.3765C99.9932 82.2353 100.481 82.1691 100.93 81.9742C101.49 81.7327 101.871 81.2928 102.302 80.878C102.892 80.3147 102.676 79.265 102.121 78.7803V78.7803Z" fill="#EC5186"/>
<path d="M117.982 103.121C116.91 103.472 115.746 103.436 114.675 103.087C113.232 102.615 112.27 104.498 113.654 105.258C115.315 106.168 117.159 106.211 118.956 105.723C120.66 105.26 119.698 102.56 117.982 103.121Z" fill="#EC5186"/>
<path d="M137.515 119.5C138.06 119.478 137.17 119.485 137.086 119.494C136.588 119.543 136.258 119.755 135.844 119.99C135.465 120.206 136.079 119.888 135.692 120.088C135.499 120.188 135.287 120.281 135.086 120.362C134.63 120.544 133.852 120.66 133.427 120.628C132.354 120.542 131.335 121.029 131.009 122.12C130.716 123.107 131.125 124.305 132.137 124.729C133.597 125.337 135.009 125.388 136.528 124.961C138.012 124.544 139.557 123.463 139.679 121.826C139.78 120.487 138.902 119.446 137.515 119.5V119.5Z" fill="#EC5186"/>
<path d="M160.326 97.423C158.091 97.0385 157.49 100.513 159.73 100.898C161.966 101.282 162.567 97.8075 160.326 97.423Z" fill="#EC5186"/>
<path d="M118.317 66.6163C118.347 63.7355 116.65 61.5252 115.084 59.2738C114.317 58.1668 112.707 59.1218 113.076 60.336C113.871 62.9683 114.56 65.6328 116.843 67.3942C117.507 67.9057 118.308 67.3907 118.317 66.6163V66.6163Z" fill="#EC5186"/>
<path d="M142.976 70.8372C142.164 70.1988 141.002 70.1881 140.24 70.9106C139.552 71.5633 139.249 72.8365 139.938 73.6305L140.26 74.0561L140.514 74.5193C140.583 74.6856 140.642 74.8537 140.701 75.0253C140.718 75.0718 140.912 75.6226 140.85 75.3258C141.034 76.2109 141.544 76.8386 142.447 77.0407L142.965 77.0586C143.843 76.9996 144.496 76.2789 144.679 75.4634C145.079 73.6823 144.419 71.9692 142.976 70.8372V70.8372Z" fill="#EC5186"/>
<path d="M134.83 88.3598C134.807 87.9556 134.503 87.4979 134.117 87.3512C133.855 87.2511 133.575 87.1599 133.299 87.1134L132.89 87.0919L132.725 86.9846L132.3 86.8505L132.191 86.8076C131.926 86.559 132.09 86.72 132.167 86.8094L132.162 86.8076L132.167 86.8112C132.221 86.872 132.235 86.9006 132.042 86.7432L131.867 86.5966L131.799 86.4946C131.1 85.4378 129.542 85.2178 128.532 85.9331C127.493 86.6663 127.237 88.1631 127.97 89.2021C129.043 90.7221 131.438 91.8147 133.099 90.7364C134.111 90.3304 134.896 89.5239 134.83 88.3598V88.3598Z" fill="#EC5186"/>
<path d="M173.143 76.893C173.104 75.0511 171.432 74.2214 169.813 74.1945C168.594 74.1749 167.68 75.5518 167.791 76.6641C167.9 77.7782 168.984 78.8172 170.15 78.692L170.302 78.7403L170.425 78.8154C171.802 79.5718 173.173 78.2431 173.143 76.893V76.893Z" fill="#EC5186"/>
<path d="M184.289 56.0661C183.633 55.4456 182.487 55.6083 181.929 56.2718C181.317 56.9996 181.475 58.0082 182.133 58.6305C182.955 59.4084 184.819 61.1162 185.924 59.8376C187.016 58.5715 185.125 56.8566 184.289 56.0661V56.0661Z" fill="#EC5186"/>
<path d="M191.612 69.1432C190.745 68.9519 189.795 68.9626 188.908 68.8821C186.825 68.6961 186.33 71.5591 188.359 72.0795C189.221 72.3012 190.114 72.6267 190.994 72.7358C193.322 73.0255 193.907 69.6493 191.612 69.1432V69.1432Z" fill="#EC5186"/>
<path d="M170.852 60.7556C170.727 60.2531 170.169 59.8776 169.689 59.7935C169.001 59.6719 168.572 59.9491 168.046 60.2245C167.867 60.3175 167.173 60.4999 166.93 60.5392C166.197 60.6555 165.575 61.1669 165.444 61.9233C165.332 62.5868 165.696 63.4952 166.383 63.7223C167.501 64.0943 168.486 64.1139 169.523 63.4737C170.544 62.8443 171.158 61.9716 170.852 60.7556Z" fill="#EC5186"/>
<path d="M197.701 45.2158C197.954 44.091 197.16 42.9251 196.045 42.6944C194.927 42.4619 193.74 43.213 193.523 44.3503C193.264 45.713 192.769 47.1329 193.614 48.3864C194.142 49.1679 195.215 49.3932 196.014 48.8836C197.291 48.0663 197.397 46.5731 197.701 45.2158Z" fill="#EC5186"/>
<path d="M200.298 32.5585C200.248 32.1472 200.087 31.82 199.919 31.4427C199.373 30.2177 197.666 31.3282 198.579 32.3225C198.86 32.6301 199.094 32.9037 199.452 33.1147C199.824 33.3346 200.352 32.9877 200.298 32.5585V32.5585Z" fill="#EC5186"/>
<path d="M200.229 57.4434C198.898 58.2839 197.818 59.4516 197.073 60.8375C196.416 62.0589 195.842 64.2155 197.074 65.2938C198.351 66.4133 199.497 64.9219 200.002 63.8382C200.633 62.4827 201.157 61.4276 202.448 60.5818C204.526 59.2209 202.312 56.129 200.229 57.4434Z" fill="#EC5186"/>
<path d="M212.292 66.123C211.43 65.5704 210.248 65.887 209.805 66.8312C209.332 67.8379 208.912 68.8894 209.281 69.9856C209.465 70.5364 210.048 70.6831 210.552 70.565C211.534 70.3308 212.16 69.4831 212.693 68.6784C213.259 67.8183 213.24 66.7274 212.292 66.123Z" fill="#EC5186"/>
<path d="M173.007 118.925C173.155 116.989 170.469 115.86 169.574 117.845C168.531 120.152 167.873 122.55 168.708 125.045C169.4 127.116 172.918 126.921 173.107 124.628C173.263 122.725 172.86 120.816 173.007 118.925V118.925Z" fill="#EC5186"/>
<path d="M187.701 91.5035C187.676 88.0272 182.762 87.0258 180.194 88.2006C177.921 89.2396 179.151 92.5479 181.555 91.8326C182.115 91.6663 182.655 91.8111 183.143 92.0811C183.407 92.226 183.613 92.3834 183.84 92.5801C184.221 92.9109 184.89 93.2739 185.076 93.3597C186.446 93.9803 187.712 92.8876 187.701 91.5035V91.5035Z" fill="#EC5186"/>
<path d="M200.792 115.205C199.59 115.055 198.199 115.817 198.063 117.135C197.977 117.964 197.795 118.864 197.918 119.692C198.231 121.815 200.998 122.294 202.005 120.395C202.396 119.654 202.525 118.746 202.72 117.934C203.011 116.731 202.001 115.357 200.792 115.205V115.205Z" fill="#EC5186"/>
<path d="M218.151 107.987C217.779 108.491 217.439 108.965 217.159 109.527C216.862 110.119 217.651 110.516 218.071 110.112C218.484 109.715 218.811 109.287 219.151 108.826C219.648 108.152 218.652 107.309 218.151 107.987V107.987Z" fill="#EC5186"/>
<path d="M192.079 125.829C191.69 125.828 191.305 125.822 190.917 125.867C190.559 125.908 190.125 126.08 189.765 126.051C188.381 125.938 188.058 127.812 189.401 128.17C189.749 128.263 190.103 128.569 190.425 128.728C190.776 128.898 191.141 129.023 191.509 129.152C192.564 129.522 193.769 129.059 193.975 127.864C194.179 126.679 193.199 125.833 192.079 125.829V125.829Z" fill="#EC5186"/>
<path d="M158.189 134.968C157.072 132.227 152.758 131.744 150.194 132.105C148.474 132.348 148.742 134.811 150.459 134.773C151.503 134.75 152.451 134.963 153.354 135.492C154.219 135.998 154.813 136.882 155.781 137.193C157.136 137.627 158.833 136.545 158.189 134.968Z" fill="#EC5186"/>
<path d="M175.822 146.957C174.002 146.563 172.166 146.313 170.367 145.809C168.741 145.354 167.974 147.641 169.063 148.62C170.733 150.118 172.809 151.211 175.077 151.304C176.266 151.35 177.402 150.785 177.623 149.503C177.832 148.283 176.992 147.21 175.822 146.957Z" fill="#EC5186"/>
<path d="M150.233 196.417C148.064 195.149 145.354 194.43 142.921 193.849C141.261 193.451 139.949 196.026 141.46 196.998C143.763 198.483 146.24 199.936 148.888 200.698C149.966 201.008 151.107 200.108 151.411 199.139C151.765 198.011 151.22 196.995 150.233 196.417V196.417Z" fill="#EC5186"/>
<path d="M138.895 215.022C137.8 213.693 136.472 213.591 134.837 213.444C133.246 213.301 131.681 213.214 130.084 213.176C128.673 213.142 128.263 215.519 129.606 215.957C131.125 216.454 132.627 216.894 134.175 217.291C135.758 217.695 137.053 218.044 138.528 217.158C139.202 216.754 139.394 215.626 138.895 215.022Z" fill="#EC5186"/>
<path d="M179.094 210.427C178.048 210.039 177.005 210.025 175.92 209.798C174.876 209.58 173.926 209.201 172.975 208.725C170.632 207.559 169.035 211.11 171.265 212.364C173.477 213.61 176.41 214.755 178.947 214.09C180.564 213.666 180.645 211.001 179.094 210.427Z" fill="#EC5186"/>
<path d="M175.699 190.76C174.166 189.803 172.203 189.647 170.482 189.222C168.422 188.71 167.401 191.983 169.361 192.789C171.003 193.464 172.678 194.488 174.483 194.622C176.849 194.801 177.669 191.988 175.699 190.76V190.76Z" fill="#EC5186"/>
<path d="M47.106 178.522C45.9561 176.773 44.4844 175.035 42.8017 173.781C41.7591 173.007 40.3732 173.969 40.7666 175.219C41.3693 177.129 42.4601 179.049 43.6743 180.639C44.4415 181.642 46.2137 184.028 47.7855 182.942C49.2805 181.91 47.7587 179.514 47.106 178.522V178.522Z" fill="#EC5186"/>
<path d="M202.985 192.167C202.626 191.04 201.861 190.153 201.131 189.249C200.464 188.419 199.804 187.584 199.151 186.742C197.349 184.408 193.917 186.874 195.437 189.367C195.993 190.277 196.539 191.192 197.077 192.115C197.664 193.122 198.223 194.136 199.151 194.876C201.093 196.425 203.719 194.467 202.985 192.167Z" fill="#EC5186"/>
<path d="M181.487 170.848C181.513 169.573 180.7 168.762 179.529 168.414C177.302 167.75 174.359 168.051 172.071 168.31C170.543 168.484 169.89 170.917 171.524 171.495C173.926 172.341 176.792 173.299 179.36 173.137C180.01 173.095 180.578 172.74 180.966 172.242L180.997 172.287L181.034 172.155C181.306 171.772 181.476 171.318 181.487 170.848V170.848Z" fill="#EC5186"/>
<path d="M210.64 148.738C210.102 148.067 209.492 147.497 208.609 147.345C207.934 147.23 207.151 147.309 206.466 147.3C205.354 147.288 204.247 147.275 203.133 147.323C201.157 147.411 200.636 150.435 202.471 151.177C203.505 151.594 204.551 151.951 205.606 152.311C206.157 152.498 206.709 152.72 207.274 152.869C208.313 153.142 209.12 152.906 210.019 152.348C211.16 151.644 211.479 149.782 210.64 148.738V148.738Z" fill="#EC5186"/>
<path d="M227.758 187.7C227.513 186.609 227.263 185.613 226.762 184.608C226.31 183.701 225.787 182.816 225.382 181.89C224.35 179.535 221.122 180.856 221.716 183.265C222.181 185.146 222.29 186.985 223.118 188.78C223.618 189.862 224.695 190.559 225.909 190.257C226.952 189.996 228.026 188.882 227.758 187.7Z" fill="#EC5186"/>
<path d="M246.164 175.022C246.479 173.187 243.63 172.695 243.314 174.532C243.219 175.081 243.071 175.651 243.053 176.209C243.035 176.751 243.146 177.305 243.212 177.843C243.333 178.85 244.703 179.086 245.156 178.176C245.395 177.693 245.692 177.207 245.851 176.688C246.016 176.154 246.069 175.572 246.164 175.022V175.022Z" fill="#EC5186"/>
<path d="M223.007 204.042C219.78 205.281 216.922 206.379 213.387 206.229C211.276 206.14 209.905 209.054 212.181 210.063C216.523 211.987 222.319 211.229 225.436 207.479C226.816 205.819 225.055 203.257 223.007 204.042V204.042Z" fill="#EC5186"/>
<path d="M230.003 143.284C229.966 142.894 229.825 142.54 229.662 142.195C229.301 141.428 228.753 140.784 228.176 140.174C227.16 139.103 226.048 138.542 224.725 137.953C223.255 137.3 221.704 139.452 223.142 140.428C223.904 140.945 224.626 141.873 225.061 142.688C225.683 143.858 225.864 145.035 227.114 145.555C228.001 145.974 229.186 145.875 229.61 144.804C229.374 145.069 229.438 144.947 229.805 144.441C229.975 144.073 230.041 143.688 230.003 143.284V143.284Z" fill="#EC5186"/>
<path d="M29.4776 172.568C28.3152 171.068 27.0187 169.76 25.7115 168.399C24.8317 167.486 23.7248 168.848 24.2165 169.771C25.1071 171.438 25.9494 173.061 27.0295 174.623C27.9182 175.907 28.866 177.632 30.4969 177.972C31.0316 178.083 31.6575 177.663 31.7183 177.108C31.9078 175.383 30.4772 173.855 29.4776 172.568V172.568Z" fill="#EC5186"/>
<path d="M20.7311 190.794C20.6757 189.147 18.1167 188.706 17.514 190.242C16.1693 193.666 14.6546 198.89 16.2283 202.423C16.5323 203.108 17.3621 203.249 17.8789 202.706C20.5398 199.902 20.8563 194.473 20.7311 190.794Z" fill="#EC5186"/>
<path d="M27.9714 200.508C27.7514 199.147 26.0204 198.848 25.357 200.059C24.3323 201.928 23.7922 204.918 24.6917 206.908C24.9957 207.582 25.8004 207.72 26.3119 207.187C27.8247 205.611 28.3129 202.613 27.9714 200.508Z" fill="#EC5186"/>
<path d="M39.1101 200.76L39.0636 200.646C38.6273 199.517 36.7764 199.591 36.6227 200.876L36.5958 201.009C36.2042 201.647 36.0325 202.491 35.9735 203.239C35.8144 203.673 35.6946 204.059 35.6355 204.564C35.5604 205.197 36.054 205.848 36.7443 205.755C37.878 205.601 38.663 204.88 39.1763 203.886C39.6305 203.006 39.7879 201.581 39.1101 200.76V200.76Z" fill="#EC5186"/>
<path d="M31.3574 215.906C31.1106 215.597 30.8567 215.413 30.5223 215.209C29.7212 214.724 28.675 215.416 28.532 216.248C28.3889 217.081 29.1471 218.079 30.0609 217.889C30.4454 217.811 30.7458 217.72 31.0802 217.51C31.5881 217.194 31.7276 216.373 31.3574 215.906V215.906Z" fill="#EC5186"/>
<path d="M30.0627 189.945C29.3384 188.804 28.253 188.163 27.1729 187.421C26.6292 187.049 25.9425 186.987 25.4346 187.468C24.9804 187.899 24.8266 188.671 25.2415 189.197C26.1446 190.34 26.9082 191.423 28.2244 192.139C29.5995 192.886 30.8048 191.114 30.0627 189.945V189.945Z" fill="#EC5186"/>
<path d="M57.8925 216.442C57.821 215.197 57.5456 214.144 57.9015 212.912C58.1769 211.966 57.3829 210.928 56.5192 210.671C55.4963 210.369 54.6362 210.837 54.1015 211.717C53.3236 212.997 52.9749 214.534 53.2842 216.009C53.5793 217.413 54.57 219.258 56.2384 219.272C57.8228 219.285 57.9605 217.658 57.8925 216.442Z" fill="#EC5186"/>
<path d="M196.715 184.751C198.074 183.75 199.919 183.909 201.019 185.22C202.593 187.094 203.95 189.104 205.193 191.21C206.008 192.596 205.068 194.692 203.648 195.257C201.96 195.926 200.473 195.189 199.601 193.712C199.417 193.397 199.302 193.208 199.018 192.771C198.735 192.34 198.446 191.915 198.145 191.495C197.546 190.656 196.91 189.846 196.246 189.055C195.214 187.827 195.402 185.717 196.715 184.751V184.751Z" fill="#49150D"/>
<path d="M170.213 166.388C170.701 165.113 171.999 164.79 173.194 165.099C175.846 165.787 178.562 166.156 181.295 166.306C184.249 166.471 183.743 171.036 180.799 170.871C177.634 170.698 174.567 170.165 171.5 169.371C170.292 169.056 169.809 167.443 170.213 166.388V166.388Z" fill="#49150D"/>
<path d="M170.575 143.193C173.048 144.142 175.558 144.838 178.173 145.269C181.077 145.747 180.6 150.316 177.676 149.834C174.668 149.339 171.728 148.556 168.883 147.465C166.125 146.406 167.808 142.132 170.575 143.193Z" fill="#49150D"/>
<path d="M147.494 151.109C148.673 150.263 149.853 149.417 151.033 148.573C152.04 147.85 153.454 147.918 154.261 148.923C155.007 149.85 154.922 151.425 153.91 152.151C152.73 152.997 151.55 153.841 150.371 154.687C149.363 155.409 147.95 155.34 147.144 154.336C146.398 153.408 146.482 151.833 147.494 151.109Z" fill="#49150D"/>
<path d="M123.191 174.949C125.401 172.175 128.316 170.056 131.703 168.971C132.883 168.593 134.192 168.91 134.737 170.13C135.201 171.165 134.764 172.783 133.579 173.164C130.918 174.017 128.631 175.487 126.883 177.681C125.047 179.986 121.342 177.27 123.191 174.949V174.949Z" fill="#49150D"/>
<path d="M143.954 189.935C147.231 191.596 150.507 193.257 153.783 194.919C156.394 196.244 154.734 200.53 152.089 199.189C148.815 197.528 145.539 195.868 142.263 194.207C139.65 192.882 141.311 188.595 143.954 189.935V189.935Z" fill="#49150D"/>
<path d="M171.86 187.691C173.135 188.206 174.403 188.417 175.78 188.408C177.023 188.403 177.938 189.807 177.815 190.94C177.668 192.291 176.529 192.968 175.283 192.976C173.53 192.984 171.792 192.62 170.167 191.962C167.432 190.855 169.11 186.577 171.86 187.691V187.691Z" fill="#49150D"/>
<path d="M130.365 210.084L138.735 210.994C141.674 211.315 141.182 215.882 138.238 215.562L129.869 214.65C126.931 214.331 127.423 209.764 130.365 210.084Z" fill="#49150D"/>
<path d="M174.794 205.945C175.711 207.016 176.934 207.763 178.331 208.019C179.552 208.241 180.507 209.253 180.366 210.549C180.239 211.717 179.062 212.808 177.836 212.584C175.212 212.105 172.954 210.853 171.214 208.822C169.288 206.572 172.871 203.7 174.794 205.945V205.945Z" fill="#49150D"/>
<path d="M212.736 203.764C213.245 202.491 214.504 202.167 215.717 202.475C217.73 202.986 219.78 202.579 221.593 201.649C224.232 200.298 226.092 204.499 223.469 205.842C220.473 207.376 217.249 207.564 214.023 206.745C212.825 206.441 212.315 204.81 212.736 203.764V203.764Z" fill="#49150D"/>
<path d="M224.693 177.561C225.711 177.092 227.367 177.534 227.728 178.719C228.612 181.62 229.495 184.521 230.38 187.421C230.743 188.616 230.444 189.891 229.22 190.456C228.202 190.924 226.548 190.481 226.185 189.297C225.303 186.396 224.418 183.496 223.535 180.595C223.172 179.399 223.468 178.124 224.693 177.561Z" fill="#49150D"/>
<path d="M201.106 146.484C202.266 145.268 203.579 144.799 205.251 145.128C205.952 145.266 206.617 145.505 207.304 145.693C207.681 145.795 207.416 145.75 207.769 145.797L208.026 145.82L208.048 145.815C209.038 145.332 210.204 145.393 210.961 146.335C211.671 147.217 211.665 148.9 210.61 149.565C209.264 150.412 207.983 150.561 206.447 150.184C205.85 150.039 205.272 149.826 204.675 149.681L204.305 149.635C203.495 150.207 202.477 150.357 201.585 149.697C200.684 149.03 200.245 147.388 201.106 146.484V146.484Z" fill="#49150D"/>
<path d="M223.382 137.374C225.084 139.539 226.524 141.903 227.663 144.412C228.888 147.109 224.693 148.979 223.47 146.288C222.484 144.119 221.274 142.123 219.802 140.251C217.974 137.924 221.551 135.045 223.382 137.374V137.374Z" fill="#49150D"/>
<path d="M245.151 173.673L244.697 177.859C244.377 180.797 239.809 180.305 240.13 177.362L240.586 173.177C240.906 170.239 245.471 170.731 245.151 173.673V173.673Z" fill="#49150D"/>
<path d="M115.178 144.048C116.124 143.15 117.532 142.748 118.814 142.948C119.998 143.132 121.044 144.212 120.847 145.478C120.665 146.662 119.588 147.712 118.317 147.513L118.206 147.501L118.056 147.628C117.156 148.483 115.559 148.188 114.828 147.277C113.996 146.244 114.277 144.904 115.178 144.048V144.048Z" fill="#49150D"/>
<path d="M91.0318 139.197C91.7131 138.276 93.3208 137.879 94.2435 138.718C95.6419 139.984 96.7649 141.479 97.3855 143.278C97.7914 144.449 97.4284 145.774 96.2267 146.312C95.1716 146.784 93.5997 146.33 93.1938 145.154C93.0847 144.842 92.9703 144.537 92.8308 144.24L92.609 143.8L92.5286 143.659C92.3551 143.387 92.1548 143.127 91.9474 142.881L91.6183 142.512C91.427 142.312 91.3912 142.278 91.511 142.409C90.5937 141.577 90.2414 140.263 91.0318 139.197V139.197Z" fill="#49150D"/>
<path d="M92.0827 162.378C92.6156 159.488 97.1846 159.962 96.6499 162.873L95.4679 169.284C94.9368 172.172 90.366 171.7 90.9025 168.787L92.0827 162.378V162.378Z" fill="#49150D"/>
<path d="M92.6947 189.065C93.6174 188.323 95.2018 188.402 95.9243 189.417C97.0222 190.964 98.2436 192.409 99.5848 193.752C100.465 194.628 100.127 196.263 99.2343 196.98C98.181 197.827 96.8863 197.507 96.0065 196.627C94.6635 195.286 93.4422 193.841 92.3442 192.295C91.6253 191.284 91.6879 189.875 92.6947 189.065V189.065Z" fill="#49150D"/>
<path d="M69.0317 186.043C69.7739 185.038 71.2384 184.826 72.2434 185.561C73.5327 186.507 74.8221 187.452 76.1114 188.396C77.111 189.129 77.3256 190.615 76.5906 191.608C75.8467 192.613 74.3822 192.824 73.3772 192.087C72.0878 191.143 70.7985 190.198 69.511 189.254C68.5096 188.521 68.295 187.035 69.0317 186.043V186.043Z" fill="#49150D"/>
<path d="M67.6569 160.823C68.9766 162.367 70.5503 163.713 72.3403 164.688C73.4276 165.282 74.125 166.415 73.6296 167.671C73.2166 168.715 71.743 169.557 70.6468 168.96C68.1308 167.587 65.9473 165.886 64.0768 163.701C62.1509 161.451 65.7345 158.579 67.6569 160.823V160.823Z" fill="#49150D"/>
<path d="M66.9595 123.852C68.1165 124.03 69.227 125.118 68.9945 126.384L68.9408 126.743L68.9534 127.054L68.9569 127.13L68.973 127.163C68.9981 127.228 69.227 127.634 69.0607 127.385C69.7509 128.413 69.733 129.79 68.7084 130.613C67.8053 131.341 66.1744 131.296 65.4806 130.263C64.6026 128.955 64.1376 127.467 64.4291 125.887C64.6455 124.708 65.6701 123.653 66.9595 123.852V123.852Z" fill="#49150D"/>
<path d="M35.4435 133.788C37.7539 133.788 40.0643 133.788 42.3747 133.79C43.6158 133.79 44.5332 135.183 44.4098 136.32C44.2631 137.665 43.124 138.355 41.8776 138.355C39.5672 138.355 37.2568 138.354 34.9464 138.354C33.7035 138.354 32.7879 136.961 32.9113 135.823C33.058 134.478 34.1971 133.788 35.4435 133.788V133.788Z" fill="#49150D"/>
<path d="M41.7765 150.369C43.0068 150.56 43.951 151.621 43.8115 152.899L43.7704 153.28C43.6398 154.475 42.465 155.505 41.2382 155.315C40.0079 155.126 39.0655 154.064 39.2032 152.783L39.2461 152.404C39.3749 151.209 40.5498 150.181 41.7765 150.369V150.369Z" fill="#49150D"/>
<path d="M17.7863 147.943C18.7627 145.155 23.0348 146.845 22.0567 149.635C21.3682 151.593 21.1554 153.596 21.4111 155.656C21.7759 158.587 17.2409 159.327 16.8761 156.391C16.5184 153.501 16.8206 150.69 17.7863 147.943Z" fill="#49150D"/>
<path d="M40.2506 174.475C42.595 176.502 44.7624 178.713 46.7098 181.125C48.5695 183.427 44.9913 186.304 43.1315 184.002C41.4255 181.892 39.5693 179.941 37.5182 178.166C35.2972 176.245 38.0082 172.534 40.2506 174.475Z" fill="#49150D"/>
<path d="M22.4964 168.259C23.7446 167.701 24.8873 168.353 25.5311 169.417C26.9724 171.805 28.7195 174.004 30.6329 176.029C31.4841 176.93 31.1926 178.523 30.2806 179.256C29.2488 180.086 27.9059 179.811 27.0529 178.906C24.8533 176.579 22.9918 174.031 21.3376 171.293C20.6957 170.231 21.4628 168.722 22.4964 168.259Z" fill="#49150D"/>
<path d="M27.7101 183.802C29.5859 185.311 31.46 186.819 33.3359 188.328C35.6302 190.175 32.9139 193.881 30.6017 192.021C28.7276 190.512 26.8517 189.002 24.9758 187.493C22.6815 185.646 25.3978 181.942 27.7101 183.802Z" fill="#49150D"/>
<path d="M16.0278 188.389C17.5389 185.853 21.2245 188.598 19.7188 191.121C18.3508 193.417 17.6641 196.087 17.7839 198.759C17.9145 201.683 13.3812 202.443 13.2489 199.494C13.0683 195.476 13.966 191.847 16.0278 188.389V188.389Z" fill="#49150D"/>
<path d="M20.821 205.224L22.2355 200.394C22.5843 199.203 24.1418 198.679 25.2166 199.105C26.4594 199.597 26.8564 200.891 26.5059 202.086C26.0356 203.697 25.5635 205.306 25.0914 206.916C24.7427 208.107 23.1869 208.631 22.1103 208.205C20.8693 207.713 20.4705 206.419 20.821 205.224Z" fill="#49150D"/>
<path d="M37.0089 197.619C38.2392 197.808 39.1834 198.869 39.0439 200.149L38.672 203.574C38.5414 204.768 37.3666 205.798 36.1398 205.609C34.9095 205.419 33.9671 204.357 34.1048 203.077L34.4785 199.652C34.6073 198.459 35.7822 197.429 37.0089 197.619V197.619Z" fill="#49150D"/>
<path d="M51.09 210.48C51.4047 209.28 53.0195 208.774 54.071 209.191C55.3389 209.693 55.6751 210.968 55.3603 212.173C54.8847 213.988 54.9848 215.97 55.5875 217.74C55.9862 218.913 55.6322 220.235 54.4287 220.775C53.3772 221.245 51.7981 220.795 51.394 219.616C50.3532 216.562 50.2727 213.597 51.09 210.48V210.48Z" fill="#49150D"/>
<path d="M29.9754 215.241L30.3974 214.903C31.3649 214.125 32.8491 214.288 33.627 215.253C34.4049 216.224 34.244 217.703 33.2747 218.483L32.8527 218.821C31.887 219.599 30.401 219.436 29.6249 218.47C28.8452 217.499 29.0062 216.02 29.9754 215.241Z" fill="#49150D"/>
<path d="M86.6314 116.379L86.0931 121.325C85.773 124.263 81.2077 123.772 81.5278 120.828L82.066 115.882C82.3843 112.944 86.9515 113.436 86.6314 116.379Z" fill="#49150D"/>
<path d="M63.6673 100.806C63.501 103.159 64.2217 105.328 65.697 107.161C67.5532 109.468 63.9731 112.345 62.1169 110.039C59.8816 107.261 58.8516 103.858 59.1001 100.309C59.3076 97.358 63.873 97.8587 63.6673 100.806V100.806Z" fill="#49150D"/>
<path d="M76.365 88.4828C77.3145 85.6859 81.5849 87.3776 80.6371 90.1762C79.9862 92.0933 79.6267 94.1265 79.684 96.1597C79.7197 97.3972 79.1225 98.5792 77.7848 98.7938C76.6869 98.9709 75.1847 98.1429 75.1508 96.8947C75.0685 93.9906 75.4297 91.242 76.365 88.4828Z" fill="#49150D"/>
<path d="M93.9542 77.174C94.4978 77.2652 94.8787 77.2277 95.2757 76.9308L95.6673 76.6L95.8515 76.3371L95.8944 76.2853L95.9481 76.1333L96.0089 75.9974L96.025 75.8168C96.1931 74.5882 97.2982 73.6458 98.5571 73.7817C99.7678 73.9141 100.76 75.08 100.59 76.3139C100.131 79.6758 96.8833 82.3081 93.457 81.7394C92.2339 81.5374 91.2843 80.493 91.4238 79.2091C91.5525 78.027 92.7238 76.9702 93.9542 77.174V77.174Z" fill="#49150D"/>
<path d="M102.493 110C102.402 112.396 103.27 114.571 104.822 116.371C106.755 118.616 103.171 121.488 101.242 119.249C98.8829 116.511 97.7921 113.095 97.928 109.503C98.0389 106.549 102.602 107.058 102.493 110V110Z" fill="#49150D"/>
<path d="M111.175 100.031C111.588 98.9848 113.061 98.1443 114.156 98.7416C114.378 98.8614 114.601 98.958 114.828 99.0599L115.043 99.1279L115.315 99.169L115.651 99.1958L115.69 99.1922C115.79 99.1815 116.448 99.0331 116.207 99.1153C117.38 98.7184 118.7 99.0653 119.24 100.274C119.71 101.322 119.263 102.91 118.083 103.307C116.234 103.929 114.218 103.967 112.464 103.012C111.375 102.42 110.679 101.284 111.175 100.031V100.031Z" fill="#49150D"/>
<path d="M124.563 89.1415C123.58 88.5353 122.997 87.4445 123.46 86.2767C123.878 85.2181 125.338 84.4062 126.441 84.9874C127.925 85.7689 129.079 87.0671 129.207 88.8107C129.295 90.0035 128.612 91.2928 127.306 91.4448C126.16 91.5789 124.767 90.826 124.672 89.5457L124.635 89.2309L124.631 89.2238L124.563 89.1415V89.1415Z" fill="#49150D"/>
<path d="M131.468 118.279C133.208 118.254 134.861 117.712 136.386 116.909C139.008 115.527 140.866 119.729 138.262 121.102C135.976 122.306 133.537 122.808 130.971 122.846C129.728 122.864 128.815 121.44 128.936 120.314C129.085 118.955 130.222 118.297 131.468 118.279V118.279Z" fill="#49150D"/>
<path d="M151.619 130.693C152.392 129.651 153.792 129.531 154.831 130.214C156.119 131.06 157.406 131.906 158.692 132.751C159.729 133.433 159.879 135.008 159.171 135.965C158.399 137.008 156.999 137.127 155.96 136.444C154.672 135.598 153.386 134.753 152.099 133.907C151.063 133.225 150.911 131.65 151.619 130.693Z" fill="#49150D"/>
<path d="M166.236 117.341C166.771 114.453 171.342 114.925 170.801 117.837C170.403 119.992 170.222 122.154 170.26 124.344C170.281 125.587 168.852 126.501 167.729 126.379C166.367 126.231 165.716 125.093 165.694 123.849C165.657 121.658 165.837 119.494 166.236 117.341Z" fill="#49150D"/>
<path d="M156.535 95.5375C157.295 94.5128 158.724 94.3519 159.748 95.0582C159.977 95.2174 160.011 95.2406 159.848 95.128L160.024 95.1906L160.176 95.212C159.959 95.2406 159.993 95.2388 160.276 95.2049C161.467 95.0672 162.763 95.8343 162.912 97.104C163.049 98.2932 162.288 99.5932 161.011 99.7399C159.557 99.9062 158.219 99.5843 157.014 98.751C155.995 98.0464 155.814 96.5121 156.535 95.5375V95.5375Z" fill="#49150D"/>
<path d="M178.706 86.7405C179.918 86.1969 181.141 86.8085 181.74 87.8975C182.492 89.2637 183.241 90.6282 183.99 91.9926C184.587 93.0799 183.897 94.5498 182.831 95.0273C181.621 95.5691 180.396 94.9593 179.797 93.8685C179.047 92.5041 178.296 91.1396 177.547 89.7734C176.95 88.6861 177.64 87.2162 178.706 86.7405Z" fill="#49150D"/>
<path d="M199.86 115.995L199.365 120.56C199.044 123.498 194.477 123.006 194.797 120.065L195.295 115.497C195.615 112.561 200.18 113.053 199.86 115.995V115.995Z" fill="#49150D"/>
<path d="M186.898 124.892C187.706 123.802 189.031 123.793 190.109 124.413L191.896 125.44C192.971 126.058 193.053 127.738 192.375 128.651C191.567 129.742 190.242 129.753 189.163 129.131L187.377 128.104C186.302 127.485 186.22 125.806 186.898 124.892Z" fill="#49150D"/>
<path d="M214.444 107.537L214.455 107.468L214.421 107.545L214.442 107.48L214.456 107.459L214.458 107.453L214.455 107.441L214.46 107.426L214.462 107.4L214.453 107.425L214.426 107.214L214.422 107.205L214.351 107.085L214.317 107.06L214.258 107.015C213.262 106.432 212.702 105.288 213.155 104.143C213.585 103.054 215.016 102.31 216.136 102.854C218.893 104.193 219.944 107.668 218.126 110.227C217.407 111.237 215.896 111.434 214.912 110.706C213.904 109.959 213.716 108.526 214.422 107.514L214.444 107.537V107.537Z" fill="#49150D"/>
<path d="M202.549 86.6919C203.286 85.6959 204.765 85.467 205.761 86.2127C207.735 87.688 208.396 90.1397 207.688 92.4519C207.325 93.6393 205.793 94.1722 204.707 93.7412C203.475 93.2548 203.053 91.9494 203.418 90.7602C203.27 91.2412 203.345 90.4651 203.404 90.5832L203.354 90.3471L203.253 90.1272L203.148 89.9966L203.028 89.9036C202.036 89.1615 201.809 87.6916 202.549 86.6919V86.6919Z" fill="#49150D"/>
<path d="M188.185 67.3571L192.369 67.8131C195.307 68.1314 194.815 72.6986 191.874 72.3785L187.687 71.9225C184.751 71.6042 185.241 67.037 188.185 67.3571Z" fill="#49150D"/>
<path d="M193.908 60.2962C195.095 58.4096 196.569 56.734 198.243 55.2641C200.467 53.3095 203.337 56.895 201.12 58.8442C199.734 60.062 198.582 61.4675 197.601 63.0305C196.939 64.0802 195.33 64.2071 194.387 63.5097C193.327 62.7247 193.246 61.3495 193.908 60.2962V60.2962Z" fill="#49150D"/>
<path d="M191.885 41.3579C192.856 38.5665 197.128 40.2564 196.157 43.0496C195.669 44.4552 195.456 45.8804 195.431 47.3664C195.41 48.6093 194.052 49.5266 192.899 49.4015C191.572 49.2566 190.844 48.1157 190.866 46.8711C190.898 44.9827 191.266 43.139 191.885 41.3579V41.3579Z" fill="#49150D"/>
<path d="M180.091 53.9994C180.564 52.8013 181.898 52.3023 183.073 52.7101C184.325 53.1446 185.471 53.9958 186.206 55.1045C186.889 56.1381 186.884 57.5062 185.854 58.3323C184.956 59.0548 183.315 59.0208 182.626 57.9818C182.517 57.8173 182.405 57.6582 182.278 57.5079L182.227 57.431L182.106 57.3452L181.8 57.1342L181.38 56.9804C180.209 56.5745 179.649 55.1171 180.091 53.9994V53.9994Z" fill="#49150D"/>
<path d="M166.868 58.0878C167.404 57.8929 167.941 57.6979 168.477 57.503C169.641 57.0792 170.979 57.4726 171.51 58.6618C171.989 59.733 171.523 61.2709 170.353 61.6965C169.817 61.8914 169.28 62.0863 168.744 62.2812C167.579 62.705 166.242 62.3116 165.709 61.1224C165.23 60.0513 165.698 58.5134 166.868 58.0878Z" fill="#49150D"/>
<path d="M166.81 69.6534L170.235 70.0253C171.429 70.1558 172.458 71.3289 172.27 72.5557C172.08 73.7878 171.018 74.7302 169.738 74.5907L166.313 74.2188C165.119 74.0882 164.09 72.9133 164.278 71.6866C164.468 70.4563 165.53 69.5139 166.81 69.6534Z" fill="#49150D"/>
<path d="M137.553 67.3176C138.494 67.2085 139.22 67.5733 139.697 68.2153C140.645 68.3727 141.514 69.1363 141.627 70.1091C141.774 71.3698 140.992 72.5107 139.728 72.7432C137.729 73.1133 136.178 71.7829 135.654 69.9535C135.322 68.7947 136.421 67.4499 137.553 67.3176V67.3176Z" fill="#49150D"/>
<path d="M163.924 43.7074C164.303 42.5254 165.809 41.9835 166.907 42.4181C167.981 42.8419 168.418 43.913 168.257 44.9717C168.958 45.7925 169.146 46.9513 168.45 47.8883C167.76 48.8218 166.173 49.192 165.238 48.3676C163.838 47.1355 163.353 45.4938 163.924 43.7074V43.7074Z" fill="#49150D"/>
<path d="M207.641 65.4941C207.677 64.4176 208.416 63.3589 209.551 63.2284C210.747 63.0889 212.028 63.8525 212.185 65.1275C212.412 66.9873 211.54 68.5288 209.919 69.4157C208.832 70.013 207.364 69.3245 206.887 68.2569C206.416 67.2072 206.815 66.1468 207.641 65.4941V65.4941Z" fill="#49150D"/>
<path d="M197.676 31.5753C199.09 31.2839 200.376 31.8579 201.327 32.8808C202.173 33.7874 201.894 35.3718 200.977 36.1086C200.111 36.8042 199.015 36.7184 198.184 36.1282C197.069 36.2177 195.907 35.3289 195.777 34.2094C195.628 32.9291 196.415 31.8364 197.676 31.5753Z" fill="#49150D"/>
<path d="M174.705 29.8117C175.822 29.6811 177.28 30.4268 177.339 31.7108C177.387 32.7372 177.434 33.7655 177.482 34.7919C177.537 35.9865 176.91 37.2722 175.581 37.426C174.463 37.5566 173.006 36.8109 172.947 35.5269C172.9 34.5005 172.852 33.4722 172.806 32.4458C172.75 31.2512 173.376 29.9655 174.705 29.8117V29.8117Z" fill="#49150D"/>
<path d="M117.179 57.1202C118.962 59.1642 120.743 61.2082 122.524 63.2521C124.469 65.4857 120.884 68.3558 118.944 66.1294C117.163 64.0855 115.382 62.0415 113.599 59.9975C111.653 57.764 115.239 54.8939 117.179 57.1202V57.1202Z" fill="#49150D"/>
<path d="M157.654 246.29C177.856 249.361 175.56 281.17 155.26 278.086C135.058 275.015 137.354 243.206 157.654 246.29Z" fill="#1F0A0B"/>
<path d="M71.0173 234.313C89.7081 237.155 87.5836 266.584 68.8016 263.728C50.1108 260.888 52.2353 231.459 71.0173 234.313Z" fill="#1F0A0B"/>
<path d="M71.3825 214.211C76.9332 213.8 82.1174 215.645 86.1588 219.463C87.5751 220.801 85.6152 222.829 84.0594 221.974C79.8678 219.671 75.0395 218.707 70.2899 219.585C66.7044 220.248 63.5982 222.861 60.0146 223.054C59.1348 223.1 58.761 222.18 58.879 221.473C59.7356 216.407 67.1122 214.528 71.3825 214.211V214.211Z" fill="#1F0A0B"/>
<path d="M160.71 302.179C163.31 302.179 165.864 301.821 168.257 300.909C169.63 299.906 171.004 298.91 172.38 297.921C174.897 294.296 174.41 288.54 170.165 286.279C166.218 284.176 161.628 283.593 157.128 282.824C154.709 284.938 152.307 287.091 149.925 289.289C149.325 289.845 148.722 290.399 148.121 290.952C150.228 294.511 152.35 298.058 154.484 301.601C156.553 301.953 158.647 302.179 160.71 302.179V302.179ZM146.819 299.841C145.784 298.16 144.763 296.467 143.765 294.761C143.032 295.348 142.3 295.938 141.571 296.531C142.719 298.014 144.292 299.155 146.172 299.666C146.386 299.725 146.603 299.782 146.819 299.841V299.841ZM139.529 291.247C140.02 290.812 140.514 290.378 141.006 289.942C140.628 289.273 140.253 288.604 139.877 287.933C139.877 287.935 139.877 287.937 139.875 287.941C139.55 289.019 139.443 290.14 139.529 291.247V291.247ZM145.29 286.151C147.075 284.57 148.861 282.991 150.641 281.424C150.093 281.329 149.546 281.283 149.001 281.283C147.007 281.283 145.065 281.905 143.461 283.025C144.071 284.069 144.679 285.108 145.29 286.151V286.151Z" fill="#D67D68"/>
<path d="M141.581 296.518C142.31 295.924 143.042 295.334 143.775 294.747C143.371 294.057 142.97 293.367 142.573 292.671C142.051 291.759 141.533 290.844 141.016 289.928C140.524 290.364 140.03 290.799 139.539 291.234C139.687 293.143 140.411 295.009 141.581 296.518V296.518ZM148.131 290.938C148.732 290.386 149.335 289.832 149.936 289.275C152.318 287.078 154.719 284.925 157.139 282.811C155.263 282.491 153.403 282.138 151.611 281.631C151.293 281.539 150.973 281.468 150.651 281.411C148.872 282.977 147.085 284.556 145.3 286.137C146.241 287.739 147.185 289.34 148.131 290.938Z" fill="#CD745F"/>
<path d="M168.254 300.915C168.707 300.743 169.152 300.552 169.59 300.339C170.742 299.781 171.677 298.937 172.378 297.927C171.001 298.915 169.628 299.912 168.254 300.915Z" fill="#CD745F"/>
<path d="M154.499 301.604C152.366 298.062 150.243 294.514 148.136 290.955C147.19 289.357 146.246 287.756 145.306 286.154C144.694 285.111 144.086 284.072 143.476 283.028C141.819 284.183 140.52 285.866 139.893 287.937C140.268 288.607 140.644 289.276 141.021 289.945C141.538 290.861 142.056 291.776 142.579 292.688C142.976 293.384 143.376 294.074 143.78 294.764C144.778 296.47 145.799 298.164 146.835 299.845C149.272 300.503 151.865 301.156 154.499 301.604Z" fill="#CD745F"/>
<path d="M70.4236 284.378C74.1878 284.138 77.6857 282.972 80.4127 279.628C81.9989 277.683 81.7343 274.505 80.7078 272.411C78.9553 268.834 75.5308 267.111 71.6771 266.182C68.7462 268.43 65.8081 270.676 62.8342 272.865C63.5281 273.952 64.2273 275.036 64.9318 276.116C66.7398 278.884 68.5727 281.638 70.4236 284.378ZM56.5861 283.048C55.7098 281.73 54.83 280.408 53.9502 279.083C53.3762 279.462 52.7968 279.836 52.2192 280.204C53.3869 281.485 54.9158 282.465 56.5861 283.048ZM50.3129 276.951C50.81 276.587 51.3071 276.22 51.8061 275.857C51.2142 274.965 50.6223 274.072 50.0303 273.176C49.9982 273.396 49.9731 273.618 49.957 273.838C49.873 274.94 50.0071 275.984 50.3129 276.951V276.951ZM60.7634 269.591C62.8914 268.171 65.0391 266.782 67.1976 265.415C64.5688 265.102 61.958 264.961 59.7209 264.693C59.4204 264.655 59.1236 264.639 58.8285 264.639C58.4637 264.639 58.1043 264.666 57.752 264.718C58.7463 266.347 59.7495 267.973 60.7634 269.591Z" fill="#D07863"/>
<path d="M52.2061 280.194C52.7837 279.826 53.3631 279.452 53.9371 279.073C53.2236 278.002 52.5101 276.924 51.793 275.847C51.294 276.21 50.7969 276.577 50.2998 276.941C50.6878 278.161 51.3495 279.257 52.2061 280.194V280.194ZM62.8211 272.855C65.795 270.666 68.7331 268.42 71.6641 266.173C70.2102 265.822 68.6938 265.586 67.1845 265.405C65.0261 266.772 62.8784 268.161 60.7503 269.581C61.4352 270.675 62.1255 271.766 62.8211 272.855Z" fill="#CC735E"/>
<path d="M68.8354 284.434C69.3862 284.434 69.9316 284.418 70.4717 284.384C68.6208 281.645 66.7879 278.891 64.98 276.123C64.2754 275.043 63.5762 273.959 62.8823 272.872C62.1867 271.783 61.4964 270.692 60.8115 269.597C59.7976 267.979 58.7944 266.353 57.8001 264.724C53.7426 265.327 50.6614 269.259 50.0785 273.183C50.6704 274.079 51.2623 274.971 51.8542 275.863C52.5713 276.94 53.2848 278.018 53.9983 279.089C54.8781 280.414 55.7579 281.736 56.6342 283.054C57.4478 283.336 58.2937 283.526 59.1503 283.608C62.3208 283.918 65.6452 284.434 68.8354 284.434Z" fill="#CC735E"/>
<path d="M161.213 265.765C161.48 265.613 162.902 265.082 162.218 265.337C161.655 265.552 162.664 265.132 162.916 265.046L163.209 264.899L163.308 264.862C163.679 264.565 164.048 264.277 164.405 263.964L164.452 263.919C164.602 263.689 164.756 263.469 164.894 263.224C166.87 259.704 172.442 262.356 171.285 266.133C170.04 270.196 166.208 273.324 161.854 272.58C160.427 272.335 159.398 270.695 159.273 269.391C159.128 267.88 159.906 266.521 161.213 265.765Z" fill="white"/>
<path d="M150.412 248.827C152.844 247.683 156.233 247.229 158.318 249.053L158.712 249.303C158.572 249.194 159.797 250.199 159.146 249.7C161.34 251.385 161.034 254.439 158.658 255.583L158.436 255.734L158.248 255.837C157.379 256.56 156.297 257.043 155.207 257.579L155.133 257.618C154.92 257.822 154.695 258.03 154.479 258.225L154.429 258.303C154.028 258.908 153.543 259.453 153.039 259.972C151.585 261.47 148.738 261.694 147.031 260.51C145.133 259.194 144.407 257.087 144.913 254.859C145.518 252.204 148.027 249.949 150.412 248.827V248.827Z" fill="white"/>
<path d="M70.0822 254.79C71.1515 254.105 72.5338 254.111 73.7427 253.823C74.7334 253.587 75.7348 253.193 76.6343 252.723C78.5799 251.704 80.2126 253.916 79.3399 255.659C77.7609 258.814 73.3207 261.584 69.8854 259.613C67.913 258.479 68.4119 255.861 70.0822 254.79Z" fill="white"/>
<path d="M57.9877 239.171C59.1698 237.783 61.473 236.639 63.1611 235.916C64.0678 235.528 64.9154 235.346 65.8972 235.294C66.1636 235.279 66.2637 235.278 66.312 235.278L66.5982 235.251C67.655 235.147 68.7172 235.358 69.6257 235.93L69.6579 235.957L69.7347 235.971C71.3978 236.331 72.2347 238.327 71.8109 239.84L71.7877 239.94C71.7912 240.845 71.6392 241.703 71.1403 242.588C70.5967 243.556 69.8903 244.519 69.0284 245.204C67.3009 246.579 65.1085 248.126 62.9215 248.604C60.6218 249.106 57.8482 247.99 56.8182 245.78C55.6916 243.368 56.3247 241.122 57.9877 239.171V239.171Z" fill="white"/>
<path d="M96.7002 262.045C102.496 264.195 111.553 265.582 117.632 265.346C118.753 264.955 120.312 265.607 120.352 267.183C120.566 275.7 116.852 295.485 105.033 295.183C100.307 295.063 96.9881 290.763 95.5593 286.671C93.079 279.561 96.6108 261.8 96.7002 262.045Z" fill="#1F1B1F"/>
<path d="M107.208 270.952C103.566 270.581 99.2256 270.062 95.5561 268.501C96.0854 264.703 96.6648 261.947 96.7006 262.045C102.496 264.195 111.554 265.582 117.632 265.346C118.753 264.955 120.313 265.607 120.352 267.183C120.379 268.241 120.341 269.483 120.238 270.829C116.309 272.156 110.754 271.315 107.208 270.952V270.952Z" fill="white"/>
<path d="M107.763 279.828C110.903 279.676 115.242 279.272 118.487 280.62C116.341 288.183 112.164 295.325 105.027 295.143C100.301 295.023 96.9818 290.722 95.553 286.631C94.6302 283.986 94.5408 279.868 94.7948 275.749C99.5104 276.212 103.005 280.059 107.763 279.828V279.828Z" fill="#CB1E4B"/>
<path d="M159.265 225.056C153.714 224.645 148.53 226.491 144.489 230.309C143.072 231.646 145.032 233.674 146.588 232.819C150.78 230.516 155.608 229.552 160.358 230.43C163.943 231.094 167.049 233.706 170.633 233.899C171.513 233.946 171.886 233.025 171.768 232.319C170.912 227.252 163.535 225.373 159.265 225.056V225.056Z" fill="#1F0A0B"/>
</svg>
