<svg width="123" height="20" viewBox="0 0 123 20" fill="none" xmlns="http://www.w3.org/2000/svg">
<g filter="url(#filter0_d)">
<path d="M8.552 18.216C6.856 18.216 5.368 17.864 4.088 17.16C2.824 16.456 1.84 15.448 1.136 14.136C0.448 12.824 0.104 11.288 0.104 9.528C0.104 7.784 0.448 6.256 1.136 4.944C1.84 3.632 2.824 2.624 4.088 1.92C5.368 1.216 6.856 0.863999 8.552 0.863999C10.584 0.863999 12.368 1.4 13.904 2.472C14.176 2.664 14.368 2.872 14.48 3.096C14.608 3.32 14.672 3.608 14.672 3.96C14.672 4.456 14.528 4.88 14.24 5.232C13.968 5.568 13.632 5.736 13.232 5.736C12.992 5.736 12.776 5.704 12.584 5.64C12.392 5.56 12.168 5.44 11.912 5.28C11.352 4.944 10.824 4.704 10.328 4.56C9.832 4.416 9.32 4.344 8.792 4.344C7.368 4.344 6.304 4.776 5.6 5.64C4.912 6.488 4.568 7.784 4.568 9.528C4.568 11.288 4.912 12.6 5.6 13.464C6.304 14.312 7.368 14.736 8.792 14.736C9.272 14.736 9.736 14.664 10.184 14.52C10.632 14.36 11.208 14.12 11.912 13.8C12.248 13.624 12.496 13.504 12.656 13.44C12.816 13.376 13.008 13.344 13.232 13.344C13.632 13.344 13.968 13.52 14.24 13.872C14.528 14.208 14.672 14.624 14.672 15.12C14.672 15.456 14.608 15.744 14.48 15.984C14.368 16.208 14.176 16.416 13.904 16.608C12.368 17.68 10.584 18.216 8.552 18.216ZM24.1936 18.216C21.7456 18.216 19.8816 17.592 18.6016 16.344C17.3376 15.096 16.7056 13.272 16.7056 10.872V3.12C16.7056 2.464 16.8976 1.944 17.2816 1.56C17.6816 1.16 18.2096 0.959999 18.8656 0.959999C19.5216 0.959999 20.0416 1.16 20.4256 1.56C20.8256 1.944 21.0256 2.464 21.0256 3.12V11.04C21.0256 12.256 21.2976 13.192 21.8416 13.848C22.3856 14.504 23.1696 14.832 24.1936 14.832C25.2176 14.832 26.0016 14.504 26.5456 13.848C27.0896 13.192 27.3616 12.256 27.3616 11.04V3.12C27.3616 2.464 27.5536 1.944 27.9376 1.56C28.3376 1.16 28.8656 0.959999 29.5216 0.959999C30.1776 0.959999 30.7056 1.16 31.1056 1.56C31.5056 1.944 31.7056 2.464 31.7056 3.12V10.872C31.7056 13.256 31.0576 15.08 29.7616 16.344C28.4816 17.592 26.6256 18.216 24.1936 18.216ZM36.8684 18.144C36.1964 18.144 35.6604 17.952 35.2604 17.568C34.8764 17.168 34.6844 16.632 34.6844 15.96V3.12C34.6844 2.464 34.8604 1.96 35.2124 1.608C35.5644 1.256 36.0684 1.08 36.7244 1.08H42.8684C44.7404 1.08 46.1964 1.56 47.2364 2.52C48.2764 3.464 48.7964 4.784 48.7964 6.48C48.7964 8.16 48.2684 9.48 47.2124 10.44C46.1724 11.4 44.7244 11.88 42.8684 11.88H39.1004V15.96C39.1004 16.632 38.9004 17.168 38.5004 17.568C38.1004 17.952 37.5564 18.144 36.8684 18.144ZM42.2684 8.568C43.0844 8.568 43.6844 8.4 44.0684 8.064C44.4684 7.728 44.6684 7.208 44.6684 6.504C44.6684 5.112 43.8684 4.416 42.2684 4.416H39.1004V8.568H42.2684ZM56.5906 18.192C55.2946 18.192 54.1506 17.944 53.1586 17.448C52.1826 16.936 51.4226 16.216 50.8786 15.288C50.3506 14.36 50.0866 13.272 50.0866 12.024C50.0866 10.776 50.3506 9.696 50.8786 8.784C51.4226 7.856 52.1826 7.144 53.1586 6.648C54.1346 6.152 55.2786 5.904 56.5906 5.904C57.9026 5.904 59.0466 6.152 60.0226 6.648C60.9986 7.144 61.7506 7.856 62.2786 8.784C62.8226 9.696 63.0946 10.776 63.0946 12.024C63.0946 13.272 62.8226 14.36 62.2786 15.288C61.7506 16.216 60.9986 16.936 60.0226 17.448C59.0466 17.944 57.9026 18.192 56.5906 18.192ZM56.5906 15C58.1106 15 58.8706 14.008 58.8706 12.024C58.8706 10.04 58.1106 9.048 56.5906 9.048C55.0706 9.048 54.3106 10.04 54.3106 12.024C54.3106 14.008 55.0706 15 56.5906 15ZM71.7526 4.128C71.1766 4.176 70.7686 4.36 70.5286 4.68C70.3046 4.984 70.1926 5.392 70.1926 5.904V6.192H71.5126C72.7926 6.192 73.4326 6.712 73.4326 7.752C73.4326 8.808 72.7926 9.336 71.5126 9.336H70.1926V16.128C70.1926 16.784 69.9846 17.28 69.5686 17.616C69.1686 17.952 68.6646 18.12 68.0566 18.12C67.4486 18.12 66.9366 17.952 66.5206 17.616C66.1206 17.28 65.9206 16.784 65.9206 16.128V9.336H65.2246C63.9446 9.336 63.3046 8.808 63.3046 7.752C63.3046 6.712 63.9446 6.192 65.2246 6.192H65.9206C65.9526 4.656 66.4086 3.456 67.2886 2.592C68.1846 1.712 69.3926 1.216 70.9126 1.104L71.5366 1.056C71.6646 1.04 71.8326 1.032 72.0406 1.032C72.7286 1.032 73.2246 1.16 73.5286 1.416C73.8326 1.672 73.9846 2.04 73.9846 2.52C73.9846 3 73.8406 3.376 73.5526 3.648C73.2646 3.904 72.8726 4.048 72.3766 4.08L71.7526 4.128ZM76.8059 18.144C76.1499 18.144 75.6219 17.944 75.2219 17.544C74.8219 17.144 74.6219 16.616 74.6219 15.96V3.12C74.6219 2.464 74.7979 1.96 75.1499 1.608C75.5019 1.256 76.0059 1.08 76.6619 1.08H84.7259C85.4459 1.08 85.9739 1.224 86.3099 1.512C86.6459 1.784 86.8139 2.224 86.8139 2.832C86.8139 3.424 86.6379 3.856 86.2859 4.128C85.9499 4.4 85.4299 4.536 84.7259 4.536H78.9659V7.656H84.2459C84.9499 7.656 85.4699 7.8 85.8059 8.088C86.1579 8.376 86.3339 8.816 86.3339 9.408C86.3339 10 86.1579 10.432 85.8059 10.704C85.4699 10.976 84.9499 11.112 84.2459 11.112H78.9659V15.96C78.9659 16.632 78.7659 17.168 78.3659 17.568C77.9819 17.952 77.4619 18.144 76.8059 18.144ZM95.8889 18.216C93.4409 18.216 91.5769 17.592 90.2969 16.344C89.0329 15.096 88.4009 13.272 88.4009 10.872V3.12C88.4009 2.464 88.5929 1.944 88.9769 1.56C89.3769 1.16 89.9049 0.959999 90.5609 0.959999C91.2169 0.959999 91.7369 1.16 92.1209 1.56C92.5209 1.944 92.7209 2.464 92.7209 3.12V11.04C92.7209 12.256 92.9929 13.192 93.5369 13.848C94.0809 14.504 94.8649 14.832 95.8889 14.832C96.9129 14.832 97.6969 14.504 98.2409 13.848C98.7849 13.192 99.0569 12.256 99.0569 11.04V3.12C99.0569 2.464 99.2489 1.944 99.6329 1.56C100.033 1.16 100.561 0.959999 101.217 0.959999C101.873 0.959999 102.401 1.16 102.801 1.56C103.201 1.944 103.401 2.464 103.401 3.12V10.872C103.401 13.256 102.753 15.08 101.457 16.344C100.177 17.592 98.3209 18.216 95.8889 18.216ZM119.388 0.959999C119.996 0.959999 120.492 1.16 120.876 1.56C121.276 1.96 121.476 2.48 121.476 3.12V15.96C121.476 16.616 121.284 17.144 120.9 17.544C120.516 17.944 120.02 18.144 119.412 18.144C118.692 18.144 118.148 17.904 117.78 17.424L110.484 8.328V15.96C110.484 16.616 110.3 17.144 109.932 17.544C109.564 17.944 109.068 18.144 108.444 18.144C107.836 18.144 107.34 17.944 106.956 17.544C106.572 17.144 106.38 16.616 106.38 15.96V3.12C106.38 2.48 106.572 1.96 106.956 1.56C107.34 1.16 107.836 0.959999 108.444 0.959999C109.132 0.959999 109.668 1.2 110.052 1.68L117.348 10.752V3.12C117.348 2.464 117.532 1.944 117.9 1.56C118.284 1.16 118.78 0.959999 119.388 0.959999Z" fill="#EA576E"/>
</g>
<defs>
<filter id="filter0_d" x="0.103516" y="0.864014" width="122.372" height="18.352" filterUnits="userSpaceOnUse" color-interpolation-filters="sRGB">
<feFlood flood-opacity="0" result="BackgroundImageFix"/>
<feColorMatrix in="SourceAlpha" type="matrix" values="0 0 0 0 0 0 0 0 0 0 0 0 0 0 0 0 0 0 127 0"/>
<feOffset dx="1" dy="1"/>
<feColorMatrix type="matrix" values="0 0 0 0 0.968627 0 0 0 0 0.988235 0 0 0 0 0.27451 0 0 0 1 0"/>
<feBlend mode="normal" in2="BackgroundImageFix" result="effect1_dropShadow"/>
<feBlend mode="normal" in="SourceGraphic" in2="effect1_dropShadow" result="shape"/>
</filter>
</defs>
</svg>
